<svg version="1.1" xmlns="http://www.w3.org/2000/svg" viewBox="0 0 931.4970433626622 931.497043362662">
  <!-- svg-source:excalidraw -->
  <defs>
    <style>
      @font-face {
        font-family: "Virgil";
        src: url("https://excalidraw.com/FG_Virgil.woff2");
      }
      @font-face {
        font-family: "Cascadia";
        src: url("https://excalidraw.com/Cascadia.woff2");
      }
    </style>
  </defs>
  <g transform="translate(10 9.999999999999943) rotate(0 455.748521681331 455.748521681331)"><path d="M561.060053576326 12.736441495215388 C588.5485164769623 11.740937495301077, 615.5489999223632 28.48975965509368, 641.1872729146531 39.76622356299549 C666.825545906943 51.042687470897306, 691.9274898527441 64.802891659176, 714.8896915300653 80.39522494262627 C737.8518932073865 95.98755822607654, 759.3624464133202 113.72108689067025, 778.9604829785806 133.32022326369713 C798.5585195438409 152.919359636724, 816.7570123750393 174.7498674094482, 832.4779109216274 197.99004318078755 C848.1988094682156 221.2302189521269, 862.1218890398414 247.0818536239168, 873.2858742581093 272.76127789173324 C884.4498594763771 298.4407021595497, 893.0478102193631 325.09462632014277, 899.4618222312345 352.06658878768627 C905.8758342431058 379.0385512552298, 910.497240772996 406.8595366405959, 911.7699463293375 434.5930526969942 C913.042651885679 462.32656875339256, 911.2468640228882 490.65868985623206, 907.0980555692836 518.4676851260764 C902.949247115679 546.2766803959207, 895.6462946577564 574.8403846550283, 886.8770956077101 601.4470243160604 C878.1078965576638 628.0536639770925, 868.025701118378 654.0097824676692, 854.4828612690062 678.1075230922689 C840.9400214196344 702.2052637168687, 823.418957546721 724.5515169687426, 805.6200565114793 746.033468063659 C787.8211554762377 767.5154191585755, 768.936216384384 789.1476678482816, 747.6894550575564 806.9992296617672 C726.4426937307288 824.8507914752529, 702.4537114438696 839.6213469718925, 678.139488550514 853.1428389445729 C653.8252656571584 866.6643309172532, 628.2891478770349 879.1030737966805, 601.8041176974227 888.128181497849 C575.3190875178105 897.1532891990175, 546.8648580415239 903.5174748218387, 519.229307472841 907.2934851515836 C491.59375690415806 911.0694954813284, 463.69465087772693 912.0549501113662, 435.99081428532503 910.7842434763185 C408.28697769292313 909.5135368412707, 380.3639429594758 905.9601268757287, 353.00628791842956 899.6692453412968 C325.6486328773833 893.3783638068649, 297.5063207641086 884.3028150848104, 271.8448840390473 873.0389542697267 C246.18344731398605 861.775093454643, 221.77980484740385 847.7311073746799, 199.03766756806203 832.0860804507944 C176.29553028872022 816.4410535269088, 155.17943006086097 798.8735382773584, 135.3920603629964 779.1687927264132 C115.60469066513183 759.4640471754681, 96.3559880360726 736.7244821389304, 80.3134493808746 713.857607145123 C64.2709107256766 690.9907321513156, 50.27723565357143 667.3475380428563, 39.1368284318084 641.9675427635684 C27.996421210045362 616.5875474842805, 19.900896545136316 588.8988376428379, 13.47100605029641 561.5776354693958 C7.041115555456504 534.2564332959537, 2.1950490385806445 505.97266701745707, 0.557485462768966 478.04032972291554 C-1.0800781130427122 450.107992428374, -0.15898306933618755 421.6055010352883, 3.645624595426341 393.98361170214656 C7.450232260188869 366.36172236900484, 14.620008592529322 338.6081622343344, 23.385131451344137 312.30899372406503 C32.15025431015895 286.0098252137957, 42.817503419694276 260.56265969616913, 56.23636174831523 236.1886006405306 C69.65522007693619 211.81454158489205, 86.31211555021393 187.4869974980939, 103.89828142306988 166.06463939023376 C121.48444729592582 144.64228128237363, 140.34839353903192 125.50453143348862, 161.75335698545092 107.65445199336972 C183.15832043186992 89.80437255325081, 207.99242848205225 72.85429830262422, 232.32806210158392 58.96416274952031 C256.66369572111563 45.07402719641641, 281.60192849478085 33.245149434072374, 307.76715870264104 24.3136386747463 C333.93238891050123 15.382127915420227, 361.6419263996604 9.222831335921901, 389.3194433487451 5.375098193563872 C416.9969602978298 1.5273650512058432, 445.84353663185294 0.2187168943509903, 473.8322603971492 1.227239820598129 C501.8209841624454 2.2357627468452677, 541.1622563633938 9.102664986575471, 557.2517859405225 11.426235751046704 C573.3413155176512 13.749806515517937, 567.2880551316556 12.92771129491579, 570.3694378599216 15.168664407425524 C573.4508205881876 17.409617519935257, 577.8712054431713 17.469631442177974, 575.7400823101187 24.871954426105106 M438.7801357815024 0.3243231790262371 C464.91862389360887 -7.670089421004633, 494.599307934325 2.072805176893344, 522.137435262256 6.3592132860579795 C549.6755625901869 10.645621395222616, 577.7383309897288 17.407622093945683, 604.0088997490882 26.042771834014047 C630.2794685084476 34.67792157408241, 655.3137149285355 44.61128063908487, 679.7608478184126 58.17011172646818 C704.2079807082896 71.72894281385149, 729.3583744718474 89.27697714656102, 750.6916970883501 107.39575835831391 C772.0250197048529 125.5145395700668, 790.2413352009042 145.53750256987195, 807.7607835174291 166.8827989969855 C825.280231833954 188.22809542409908, 842.3911395785346 211.22504110342112, 855.8083869874991 235.46753692099523 C869.2256343964636 259.71003273856934, 879.5085974577994 285.5452997200904, 888.2642679712158 312.3377739024301 C897.0199384846321 339.13024808476985, 904.7664328257139 368.2637705752888, 908.3424100679977 396.22238201503365 C911.9183873102814 424.1809934547785, 911.493823328462 452.4015163860093, 909.7201314249185 480.08944254089914 C907.9464395213749 507.777368695789, 903.8443419289342 535.4375456424111, 897.7002586467369 562.3499389443726 C891.5561753645395 589.2623322463342, 883.9463734509341 616.0146208219912, 872.8556317317342 641.5638023526682 C861.7648900125344 667.1129838833451, 847.0356736426377 692.645226245434, 831.1558083315381 715.6450281284347 C815.2759430204385 738.6448300114354, 797.5703445521254 759.914416794297, 777.5764398651368 779.5626136506723 C757.5825351781481 799.2108105070477, 734.3290968743183 817.6763745877496, 711.1923802096057 833.5342092666863 C688.0556635448932 849.392043945623, 663.9942372412247 863.7417142946965, 638.7561398768612 874.7096217242927 C613.5180425124977 885.6775291538888, 587.2213369289794 893.0528917890055, 559.7637960234248 899.341653844263 C532.3062551178701 905.6304158995205, 502.19799054554403 911.3454746796036, 474.0108944435336 912.4421940558377 C445.8237983415231 913.5389134320718, 418.19444359625027 910.2935131564109, 390.6412194113619 905.9219701016675 C363.0879952264735 901.5504270469241, 335.10914382985925 895.1377892972123, 308.69154933420305 886.2129357273776 C282.27395483854684 877.2880821575429, 256.5124435766884 865.7963041597543, 232.13565243742482 852.3728486826593 C207.75886129816124 838.9493932055643, 183.69174305369154 823.4569649098432, 162.43080249862157 805.6722028648074 C141.1698619435516 787.8874408197717, 122.20131569871852 767.1530384440885, 104.57000910700503 745.6642764124447 C86.93870251529155 724.1755143808009, 69.9198976678372 700.8225229457382, 56.64296294834071 676.7396306749447 C43.366028228844215 652.6567384041512, 33.618860080277585 627.3531347070515, 24.908400790026064 601.1669227876831 C16.197941499774544 574.9807108683148, 8.543423371276742 547.6150958317995, 4.380207206831585 519.6223591587343 C0.21699104238642963 491.62962248566913, -1.4910695925229618 461.4843225224518, -0.0708961966448669 433.210502749292 C1.349277199233228 404.9366829761322, 6.513683859917137 376.85893950232696, 12.901247582100154 349.9794405197755 C19.288811304283172 323.099941537224, 26.869291067013478 297.1722726628692, 38.25448613645324 271.9335088539833 C49.639681205893 246.69474504509745, 65.34886533990598 221.40559157050768, 81.21241799873872 198.54685766646026 C97.07597065757145 175.68812376241283, 113.85282653755054 154.60388195839798, 133.43580208944962 134.78110542969875 C153.01877764134872 114.95832890099952, 175.59144634351475 95.39782547754255, 198.71027131013324 79.61019849426486 C221.82909627675173 63.82257151098718, 246.78271528873742 51.03495328051651, 272.1487518891606 40.055343530032644 C297.5147884895838 29.075733779548777, 323.8635884781013 20.422628611422425, 350.90649091267244 13.732539991361648 C377.9493933472436 7.042451371300871, 419.92364226628945 2.340971115890009, 434.40616649658733 -0.08518819033201908 C448.8886907268852 -2.511347496554047, 436.8931934488944 -2.3836021000157546, 437.80163629445985 -0.8244158459705204 C438.7100791400253 0.7347704080747139, 439.2771424371542 1.6908262409954107, 439.8568235699799 9.269929333939388" stroke="#000000" stroke-width="1" fill="none"></path></g><g transform="translate(285.35636481858546 62.13087462250735) rotate(0 181 28.5)"><text x="181" y="46" font-family="Cascadia" font-size="47.49110807113535px" fill="#000000" text-anchor="middle" style="white-space: pre;" direction="ltr">hexops/tridex</text></g><g transform="translate(346.12981039676765 136.32588882814105) rotate(0 120.59910344142509 120.59910344142509)"><path d="M127.76341394857927 0.3518751184480635 C141.473508555816 -0.5696792696275826, 157.42778368172708 4.7980037682608225, 170.43955950678242 10.528205710414625 C183.45133533183775 16.258407652568426, 196.0387364330916 24.866366365923454, 205.83406889891128 34.73308677137088 C215.62940136473097 44.5998071768183, 223.36500157733883 56.8755989606594, 229.21155430170046 69.72852814309917 C235.0581070260621 82.58145732553893, 239.75443816745084 97.69321599756465, 240.91338524508114 111.85066186600949 C242.07233232271145 126.00810773445433, 240.04094795413727 141.01905943004243, 236.16523676748227 154.6732033537682 C232.28952558082727 168.32734727749397, 226.2054057519776 182.46613846110347, 217.6591181251511 193.77552540836405 C209.11283049832463 205.08491235562462, 196.79089822863088 215.02260072076166, 184.8875110065233 222.5295250373316 C172.98412378441574 230.03644935390156, 159.73779379629468 235.80554926367842, 146.23879479250576 238.8170713077838 C132.73979578871683 241.8285933518892, 118.00224728193007 242.68936648112052, 103.89351698378978 240.598657301964 C89.7847866856495 238.5079481228075, 74.01597159645782 233.07384397354164, 61.58641300366405 226.27281623284472 C49.15685441087028 219.4717884921478, 38.39864362794712 210.41538065375562, 29.31616542702716 199.7924908577824 C20.233687226107193 189.1696010618092, 12.011248685019055 175.84133190933247, 7.091543798144244 162.5354774570054 C2.1718389112694325 149.22962300467836, -0.22896675263234792 134.19943291340485, -0.202063894221709 119.95736414382009 C-0.1751610358110701 105.71529537423532, 1.9699860570682617 90.2570268812468, 7.252960948608077 77.08306483949681 C12.535935840147893 63.90910279774682, 21.817107163345852 51.45485307361852, 31.495785455017185 40.91359189332013 C41.17446374668852 30.37233071302174, 52.896243431953465 20.634416999539823, 65.32503069863606 13.835497757706449 C77.75381796531865 7.0365785158730745, 93.85323001581152 2.1483511274644393, 106.06850905511271 0.12007644231988479 C118.28378809441391 -1.9081982428246698, 131.67397404830643 0.7307352567770167, 138.6167049344432 1.6658496468391206 C145.55943582057995 2.6009640369012246, 148.02634694681558 3.938422872674349, 147.72489437193326 5.7307627826925085 M133.93969635960727 1.7767853662385278 C147.594258387878 1.2896144848272708, 163.6988167530576 5.22011937768396, 176.5119217713454 11.564191229396826 C189.32502678963323 17.90826308110969, 201.5499779830677 29.432977557848467, 210.81832646933412 39.841216476515726 C220.08667495560056 50.249455395182984, 227.23051282359384 61.197049046224116, 232.122012688944 74.01362474140038 C237.01351255429418 86.83020043657665, 239.6555436379264 102.38734282624353, 240.16732566143511 116.74067064757331 C240.67910768494383 131.0939984689031, 239.85175015771512 146.6658246147015, 235.19270482999625 160.1335916693791 C230.53365950227737 173.60135872405667, 221.31957305500302 186.7564963504521, 212.21305369512197 197.54727297563886 C203.10653433524092 208.33804960082563, 192.6476382592294 217.75589390411534, 180.5535886707099 224.87825142049974 C168.4595390821904 232.00060893688413, 153.38273653431196 237.8897723475072, 139.64875616400485 240.28141807394516 C125.91477579369776 242.67306380038312, 111.6898028855346 242.13359673668495, 98.14970644886733 239.22812577912742 C84.60961001220006 236.3226548215699, 70.36306672042308 230.1317895966324, 58.40817754400125 222.84859232860003 C46.45328836757942 215.56539506056768, 35.26848492568835 206.87629817830074, 26.42037139033637 195.52894217093336 C17.572257854984393 184.18158616356598, 9.806315525431668 168.63567551043982, 5.319496331889397 154.7644562843958 C0.832677138347127 140.8932370583518, -1.5198736707537226 126.15762094174306, -0.5005437709172469 112.30162681466922 C0.5187861289192288 98.44563268759538, 5.6449871837973165 84.19675728336873, 11.435475730908252 71.62849152195272 C17.225964278019188 59.060225760536724, 24.484790057566514 46.94166349418216, 34.24238751174836 36.8920322461732 C43.99998496593021 26.842400998164244, 57.239480489772085 17.428003421978293, 69.98106045599935 11.330704033898968 C82.72264042222663 5.233404645819644, 100.07309867550612 2.205460082041843, 110.691867309112 0.3082359176972602 C121.31063594271788 -1.5889882466473229, 129.67889941197203 -0.5100263369877045, 133.69367225763466 -0.05264095216853093 C137.7084451032973 0.4047444326506427, 135.18404181670877 0.8482886858126215, 134.78050438308776 3.052548226612302" stroke="#000000" stroke-width="1" fill="none"></path></g><g transform="translate(358.63087462250724 236.4446001127036) rotate(0 106.5 17)"><text x="106.5" y="27" font-family="Cascadia" font-size="28px" fill="#000000" text-anchor="middle" style="white-space: pre;" direction="ltr">Tridex server</text></g><g transform="translate(46.77601263376573 323.24660086906096) rotate(0 114.07054826325043 114.07054826325046)"><path d="M161.04511855668298 10.296580388717373 C173.79449303356927 13.84913954829945, 187.23600254054972 23.97720231785243, 196.79752167907594 33.832716454223615 C206.35904081760216 43.6882305905948, 213.07349516893623 56.72215457610658, 218.41423338784028 69.42966520694446 C223.75497160674433 82.13717583778234, 228.35072709681066 96.4648341593636, 228.84195099250024 110.07778023925088 C229.33317488818983 123.69072631913816, 225.8612449520794 138.06470066007864, 221.3615767619779 151.10734168626814 C216.86190857187637 164.14998271245764, 210.78282016368019 177.6497345451871, 201.8439418518911 188.33362639638784 C192.905063540102 199.01751824758858, 180.0791077412215 208.7840705528658, 167.7283068912433 215.21069279347262 C155.37750604126512 221.63731503407942, 141.2952143758912 225.2419412059385, 127.73913675202195 226.89335984002872 C114.1830591281527 228.54477847411894, 99.45393888086274 228.29366375777312, 86.39184114802785 225.119204598014 C73.32974341519297 221.94474543825487, 60.45740044853272 215.76352931882306, 49.36655035501266 207.846604881474 C38.27570026149261 199.92968044412495, 27.753790611106545 189.15012509690752, 19.84674058690753 177.61765797391965 C11.939690562708513 166.08519085093178, 5.038156901468483 152.13604848385344, 1.9242502098185668 138.65180214354672 C-1.1896564818313493 125.16755580323999, -0.915116678909444 110.18459004294274, 1.1633004370080329 96.71217993207927 C3.24171755292551 83.23976982121579, 7.791823526470684 69.6207576043731, 14.394752905323429 57.81734147836583 C20.997682284176175 46.01392535235856, 30.154248490736542 34.61853089083828, 40.7808767101245 25.891683176035656 C51.40750492951246 17.164835461233032, 64.8513850598622 9.862178556323666, 78.1545222216512 5.456255189550092 C91.45765938344022 1.050331822776518, 106.75743688306906 -1.3515249806506566, 120.59969968085856 -0.543857024605785 C134.44196247864807 0.2638109314390865, 151.28496863375574 6.7204998881125615, 161.20809900838822 10.30226292581932 C171.1312293830207 13.88402596352608, 174.89619483899062 16.8070267777829, 180.13848192865348 20.946721201634773 C185.38076901831633 25.086415625486644, 193.98811820748904 33.60072873962377, 192.6618215463654 35.14042946893055 M126.10369284234994 -0.5894427950671997 C139.2523737321455 -0.5557419299516179, 154.2971799928746 7.58668691756169, 166.32390705623612 13.971683941690216 C178.35063411959766 20.356680965818743, 189.3171233169106 27.656647542163903, 198.26405522251918 37.720539349703955 C207.21098712812775 47.78443115724401, 215.25062493229044 61.21020323383075, 220.00549848988757 74.35503478693052 C224.7603720474847 87.49986634003028, 226.87159892174446 102.7414582563158, 226.793296568102 116.58952866830256 C226.71499421445952 130.43759908028935, 224.57727973676938 145.020541620975, 219.53568436803275 157.44345725885114 C214.4940889992961 169.86637289672728, 205.71740236735837 181.46364059518578, 196.54372435568223 191.1270224955594 C187.37004634400608 200.79040439593302, 176.64566366025713 209.5332289476409, 164.49361629797593 215.42374866109282 C152.34156893569474 221.31426837454472, 137.5012524058207 225.06634651113467, 123.63144018199506 226.47014077627085 C109.76162795816943 227.87393504140704, 94.26453331378029 227.43846154215947, 81.2747429550221 223.84651425190987 C68.28495259626392 220.25456696166026, 56.661339397232524 213.49255644508457, 45.69269802944598 204.91845703477313 C34.72405666165943 196.34435762446168, 23.010684826006692 184.19464771025437, 15.46289474830283 172.40191779004113 C7.915104670598969 160.60918786982788, 2.618318528092781 147.51373715209274, 0.4059575632228132 134.1620775134936 C-1.8064034016471546 120.81041787489447, -0.6876253616880206 105.56124710075102, 2.188728959083022 92.29195995844626 C5.065083279854065 79.0226728161415, 10.198268210616074 66.05733425776474, 17.66408348784907 54.54635465966503 C25.129898765082064 43.03537506156532, 36.180502823628764 31.714756454458573, 46.983620622481 23.226082369848 C57.78673842133323 14.737408285237429, 69.76316521750482 7.642053166442004, 82.48279028096249 3.6143101520015932 C95.20241534442016 -0.4134328624388175, 116.04712016002647 -0.2509455723293973, 123.30137100322705 -0.9403757167944633 C130.55562184642764 -1.6298058612595292, 125.64573380423008 -1.0476845438153481, 126.008295340166 -0.522270714788803 C126.37085687610193 0.0031431142377419397, 125.6859508598467 -0.0074069792077295915, 125.4767402188426 2.2121072573648064" stroke="#000000" stroke-width="1" fill="none"></path></g><g transform="translate(68.53283540682014 423.7387177597624) rotate(0 90 17)"><text x="90" y="27" font-family="Cascadia" font-size="28px" fill="#000000" text-anchor="middle" style="white-space: pre;" direction="ltr">Postgres 12</text></g><g transform="translate(177.2704033832308 612.5645210302894) rotate(0 115.92909869025709 115.92909869025704)"><path d="M97.53728510031321 2.5030378860748783 C110.22745960549767 -1.4894629553584955, 126.15605411772493 -0.7030272482369426, 139.81195996970135 1.8686652187451642 C153.46786582167778 4.440357685727271, 167.7518580851886 10.241764746396289, 179.4727202121717 17.93319268796752 C191.19358233915483 25.62462062953875, 201.99620126443725 36.655391861446425, 210.1371327316 48.01723286817254 C218.27806419876273 59.37907387489866, 224.9461533002749 72.86722534987982, 228.31830901514815 86.10423872832422 C231.6904647300214 99.34125210676862, 231.72049070173486 113.74212366379223, 230.3700670208395 127.43931313883893 C229.01964333994417 141.13650261388563, 226.30775635140043 156.066801329823, 220.215766929776 168.28737557860438 C214.1237775081516 180.50794982738577, 204.12381975676968 191.37184556053305, 193.818130491093 200.7627586315272 C183.51244122541632 210.15367170252134, 171.2989139857895 219.42633677197168, 158.38163133571592 224.6328540045692 C145.46434868564234 229.83937123716672, 130.04325900834436 231.97457679008474, 116.31443459065146 232.0018620271123 C102.58561017295855 232.02914726413988, 88.8074271334347 229.6298344582785, 76.0086848295585 224.79656542673456 C63.20994252568231 219.9632963951906, 49.98076960054273 212.19668494514286, 39.5219807673943 203.00224783784864 C29.063191934245864 193.80781073055442, 19.554909414218866 181.72502509152474, 13.255951830667897 169.62994278296924 C6.956994247116929 157.53486047441373, 3.183928565615571 143.9676898580936, 1.7282352660884897 130.43175398651567 C0.27254196656140794 116.89581811493777, 1.3978260588973348 101.94840843907922, 4.521792033505406 88.41432755350178 C7.645758008113477 74.88024666792434, 12.70553964734404 60.70968242086719, 20.472031113736918 49.22726867305107 C28.238522580129796 37.744854925234954, 39.62765982464452 27.33047046853498, 51.120740831862676 19.519845066605072 C62.613821839080835 11.709219664675164, 79.96064640265217 5.459394090087322, 89.43051715704587 2.3635162614716165 C98.90038791143957 -0.7323615671440891, 102.84247095457367 0.8982613491190984, 107.93996535822481 0.9445780949108382 C113.03745976187595 0.990894840702578, 119.96074550305937 0.72093112283851, 120.01548357895268 2.6414167362220553 M149.44742968675632 4.908311279302495 C162.65764302484575 6.858197887914628, 176.44212004687355 15.51607988281612, 187.02579077843373 24.020117625414784 C197.6094615099939 32.524155368013446, 206.0597532643157 44.35862757537095, 212.94945407611732 55.932537734894474 C219.83915488791894 67.506447894418, 225.6403543842232 79.85650831428524, 228.36399564924352 93.46357858255593 C231.08763691426384 107.07064885082661, 231.3453973123959 123.7906797527053, 229.2913016662393 137.5749593445186 C227.23720602008268 151.35923893633188, 223.27987489197886 164.69210859240053, 216.03942177230385 176.16925613343568 C208.79896865262884 187.64640367447083, 196.72637812681538 198.1890706189489, 185.84858294818932 206.43784459072944 C174.97078776956326 214.68661856250998, 163.6090254021276 221.3390529683412, 150.77265070054747 225.66189996411885 C137.93627599896735 229.98474695989648, 122.71062522399471 233.34964099385698, 108.83033473870864 232.37492656539524 C94.95004425342258 231.4002121369335, 80.19911251944234 225.6074636300299, 67.4909077888311 219.8136133933484 C54.78270305821985 214.01976315666687, 42.044538846379446 207.45967225671467, 32.58110635504117 197.61182514530617 C23.117673863702898 187.76397803389767, 15.922380711690746 173.7251772255064, 10.710312840801464 160.7265307248975 C5.498244969912183 147.72788422428857, 2.200740826543189 133.4486294730733, 1.308699129705488 119.6199461416527 C0.4166574328677868 105.79126281023208, 1.0979149256027751 90.94417918175836, 5.358062659775257 77.75443073637378 C9.618210393947738 64.5646822909892, 18.07425098183683 51.203863879893255, 26.86958553474038 40.48145546934525 C35.664920087643935 29.759047058797243, 45.99122192063096 19.76339300932931, 58.13006997719656 13.419980273085741 C70.26891803376216 7.076567536842172, 86.03527050428322 4.123734043262483, 99.70267387413399 2.420979051883833 C113.37007724398477 0.7182240605051835, 132.13549741907667 2.759850727765444, 140.13449019630124 3.2034503248138435 C148.13348297352582 3.647049921862243, 146.2747738642892 4.514064370280131, 147.6966305374815 5.082576634174231 C149.1184872106738 5.6510888980683305, 148.8530210056303 4.698119041672797, 148.66563023545515 6.614523908178441" stroke="#000000" stroke-width="1" fill="none"></path></g><g transform="translate(201.90538442642946 712.9347961911355) rotate(0 90 17)"><text x="90" y="27" font-family="Cascadia" font-size="28px" fill="#000000" text-anchor="middle" style="white-space: pre;" direction="ltr">Postgres 13</text></g><g transform="translate(505.450155508689 621.1364300184938) rotate(0 117.16111127068007 117.16111127068001)"><path d="M136.95924053462386 1.1263033967245235 C150.0686631690026 1.3231656613355345, 163.60067193643678 8.424867478181852, 175.5069955146182 15.36247053353955 C187.41331909279964 22.30007358889725, 199.44242386136872 31.693533523007964, 208.39718200371246 42.75192172887071 C217.3519401460562 53.81030993473346, 224.97508971695592 68.45405906211565, 229.23554436868065 81.71279976871604 C233.49599902040538 94.97154047531643, 234.73361873951376 108.59651933388788, 233.95990991406086 122.30436596847302 C233.18620108860796 136.01221260305815, 229.96214252583715 151.2937612890244, 224.59329141596317 163.95987957622685 C219.22444030608918 176.62599786342932, 211.53572989049854 188.47107994343142, 201.7468032548169 198.30107569168777 C191.95787661913528 208.13107143994412, 178.6177785071722 216.96095567630047, 165.85973160187334 222.93985406576502 C153.10168469657447 228.91875245522957, 139.0638072841823 233.24755779276853, 125.19852182302367 234.17446602847508 C111.33323636186502 235.10137426418163, 95.94895850708097 232.7157906652975, 82.66801883492144 228.50130348000434 C69.3870791627619 224.28681629471117, 56.29063807186776 217.34089078742562, 45.512883790066496 208.88754291671603 C34.73512950826523 200.43419504600644, 25.389153726992735 189.45086220661602, 18.001493144113837 177.7812162557467 C10.61383256123494 166.11157030487738, 3.882251631121882 152.56148595548288, 1.1869202927931042 138.86966721150014 C-1.5084110455356736 125.17784846751739, -0.7300673289826896 109.31778854360437, 1.8295051141411705 95.63030379185022 C4.389077557265031 81.94281904009608, 9.314661936204843 68.6055663752759, 16.544354951536263 56.744758700975304 C23.774047966867684 44.88395102667471, 34.02808293876814 32.917946018560954, 45.207663206129695 24.465457746046653 C56.38724347349125 16.01296947353235, 70.25552578308479 10.072214209475021, 83.62183655570563 6.029829065889501 C96.98814732832646 1.9874439223039815, 114.72678002559478 0.521306095241016, 125.40552784185473 0.2111468845335338 C136.08427565811468 -0.0990123261739484, 142.69583679563812 2.690630585218538, 147.69432345326535 4.168873801644608 C152.6928101108926 5.647117018070678, 156.14594917555624 7.134144956751385, 155.39644778761817 9.080606183089955 M134.0630019609166 1.316411120796829 C147.31585595067165 1.620474638197886, 161.78312732454395 9.222745866164399, 174.06156062735897 15.703685156195093 C186.339993930174 22.184624446225786, 198.637839899183 29.869087388691213, 207.73360177780665 40.202046860981 C216.8293636564303 50.535006333270786, 224.12339455131868 64.24116795187147, 228.63613189910086 77.70144198993381 C233.14886924688304 91.16171602799615, 235.4524478598138 106.77007464085484, 234.81002586449972 120.96369108935501 C234.16760386918565 135.15730753785516, 229.94729250606653 150.3213485377711, 224.78159992721646 162.86314068093478 C219.6159073483664 175.40493282409847, 213.37834583226186 186.50940282605865, 203.81587039139927 196.21444394833722 C194.2533949505367 205.9194850706158, 180.03874839197258 215.03619627162664, 167.406747282041 221.09338741460613 C154.77474617210945 227.15057855758562, 141.56371941831446 230.95865203184684, 128.02386373180985 232.55759080621414 C114.48400804530525 234.15652958058143, 99.53674316088605 234.29864336466002, 86.16761316301337 230.6870200608099 C72.7984831651407 227.0753967569598, 58.95257699949126 219.42998549059388, 47.80908374457381 210.8878509831135 C36.66559048965637 202.34571647563314, 26.6258230826191 191.20607647713535, 19.306653633508688 179.43421301592775 C11.987484184398276 167.66234955472015, 6.640934323045215 153.82579501719033, 3.8940670499113423 140.25667021586793 C1.1471997767774695 126.68754541454553, 0.934099275885174 111.46954125244758, 2.825449994705451 98.01946420799332 C4.716800713525728 84.56938716353906, 8.580179363469824 71.2674092122696, 15.242171362833005 59.5562079491424 C21.904163362196186 47.8450066860152, 31.83101794119598 36.683463740143964, 42.79740199088454 27.752256629230146 C53.763786040573095 18.82104951831633, 67.91852065620442 10.411081864865974, 81.04047566096435 5.968965283659486 C94.16243066572427 1.5268487024529973, 112.60106647011042 1.784021781834182, 121.5291320194441 1.0995571419912125 C130.4571975687778 0.4150925021482431, 132.82727203052352 1.3967555624870205, 134.60886895696646 1.8621774446016701 C136.3904658834094 2.3275993267163195, 132.63433553502512 2.196067608413756, 132.21871357810173 3.89208843467911" stroke="#000000" stroke-width="1" fill="none"></path></g><g transform="translate(535.2387177597627 723.738717759763) rotate(0 90 17)"><text x="90" y="27" font-family="Cascadia" font-size="28px" fill="#000000" text-anchor="middle" style="white-space: pre;" direction="ltr">gRPC server</text></g><g transform="translate(650.01620153159 346.0946329041403) rotate(0 115.73232014973951 115.73232014973951)"><path d="M150.84781649715043 5.827739693716694 C163.84576214162496 7.945059650276038, 176.5935927309948 16.801762567087835, 187.47021848958002 25.3713603240341 C198.34684424816524 33.940958080980366, 209.130596804101 45.6209507020854, 216.10757104866178 57.24532623539429 C223.08454529322256 68.86970176870318, 227.1221956119882 81.52668452399725, 229.3320639569447 95.11761352388743 C231.5419323019012 108.70854252377761, 232.0161280170192 125.09327020558662, 229.36678111840087 138.79090023473537 C226.71743421978252 152.48853026388412, 220.68882579921706 165.58930027130899, 213.4359825652346 177.30339369877993 C206.18313933125216 189.01748712625087, 196.9517173898395 200.79204038531554, 185.84972171450613 209.07546079956103 C174.74772603917276 217.3588812138065, 160.1201645970797 223.4476993329616, 146.82400851323433 227.00391618425283 C133.52785242938896 230.56013303554406, 119.67041495103855 231.6153811332908, 106.07278521143384 230.41276190730832 C92.47515547182913 229.21014268132583, 77.70913833711154 225.81460401139898, 65.23823007560603 219.7882008283579 C52.76732181410052 213.76179764531682, 40.6716271255187 204.25564351733598, 31.2473356424008 194.25434280906182 C21.8230441592829 184.25304210078767, 14.011947396896765 172.465164636409, 8.692481176898653 159.7803965787129 C3.3730149569005405 147.09562852101678, -0.3506041714808153 131.98891495915706, -0.6694616775878757 118.14573446288514 C-0.9883191836949361 104.30255396661325, 1.9237342390560528 89.88722249365655, 6.779336140256291 76.72131360108148 C11.634938041456529 63.55540470850641, 19.45508351439741 49.7665075693925, 28.464149729613553 39.15028110743472 C37.4732159448297 28.534054645476942, 48.60614359878973 19.440670952122453, 60.83373343155316 13.023954829334812 C73.0613232643166 6.607238706547172, 88.20874849412122 2.321097240836129, 101.82968872619415 0.6499843707088786 C115.45062895826707 -1.0211284994183718, 133.35410478326313 1.8309148291823025, 142.55937482399068 2.9972776085713093 C151.76464486471824 4.163640387960316, 153.76644962492185 5.97380197904189, 157.06130897055954 7.648161047042919 C160.35616831619723 9.322520115043949, 163.1746743273498 11.204526855712116, 162.3285308978168 13.043432016577484 M132.55681513456898 -0.10220137335939228 C145.66502517126563 0.4279542523001325, 160.98072533190827 9.411447737183188, 173.04775138296145 16.350319145675172 C185.11477743401463 23.289190554167156, 196.0718178100062 30.84827414127492, 204.95897144088798 41.53102707759251 C213.84612507176976 52.2137800139101, 221.76235223469573 67.05027509235114, 226.37067316825213 80.4468367635807 C230.97899410180852 93.84339843481027, 233.63569359547247 108.09645220354321, 232.60889704222632 121.9103971049699 C231.58210048898016 135.7243420063966, 225.9566540485209 150.6344812490762, 220.2098938487752 163.33050617214087 C214.46313364902952 176.02653109520554, 207.46727321217787 188.24335300791302, 198.1283358437522 198.08654664335793 C188.78939847532655 207.92974027880285, 176.91175861140994 216.81489273564884, 164.17626963822124 222.38966798481044 C151.44078066503255 227.96444323397205, 135.80177893634476 230.85594511480886, 121.71540200462013 231.5351981383276 C107.62902507289552 232.2144511618463, 92.46772167347481 230.62352813701546, 79.65800804787355 226.46518612592286 C66.84829442227229 222.30684411483026, 55.46989928251955 215.52740104915853, 44.857120251012574 206.58514607177207 C34.2443412195056 197.64289109438562, 22.962253346491597 184.76532314346233, 15.981333858831704 172.81165626160407 C9.00041437117181 160.85798937974582, 5.107403002638641 148.19171473753104, 2.9716033250532092 134.8631447806225 C0.8358036474677775 121.53457482371394, 0.6350777516783048 106.45577196043756, 3.166535793319113 92.8402365201528 C5.697993834959922 79.22470107986804, 10.616967674983652 64.97564821998229, 18.16035157489806 53.16993213891394 C25.703735474812465 41.364216057845596, 37.50233574559296 30.3370462665218, 48.426839192805545 22.005940033742718 C59.35134264001813 13.674833800963636, 70.42417023288306 6.714584918313676, 83.70737225817356 3.183294742239454 C96.99057428346407 -0.34799543383476816, 119.87152856280952 1.206098748615851, 128.1260513445486 0.818198977297385 C136.3805741262877 0.430299205978919, 132.3775423962212 0.4665574663457524, 133.23450894860818 0.8558961143286581 C134.09147550099516 1.2452347623115638, 133.66455449693674 1.2279992620895825, 133.2678506588704 3.154230865194819" stroke="#000000" stroke-width="1" fill="none"></path></g><g transform="translate(669.4544040342716 432.54263932839103) rotate(0 98.5 34)"><text x="98.5" y="27" font-family="Cascadia" font-size="28px" fill="#000000" text-anchor="middle" style="white-space: pre;" direction="ltr">grpc-gateway</text><text x="98.5" y="61" font-family="Cascadia" font-size="28px" fill="#000000" text-anchor="middle" style="white-space: pre;" direction="ltr"> (REST API)</text></g><g><g transform="translate(346.92499226956556 320.6504824656447) rotate(0 -35.74517133148265 22.19167083361387)"><path d="M-0.33324846290051935 0.9634473290294407 C-12.56865168423973 7.9583409150417115, -61.19455839999132 35.79042827436103, -73.1830000277026 42.668407874167244 M1.6926573647372427 0.4236532314307988 C-10.166314620930926 7.520723894378838, -58.37512435050794 36.85143088701515, -70.80388521175594 43.95968843579693" stroke="#000000" stroke-width="1" fill="none"></path></g><g transform="translate(346.92499226956556 320.6504824656447) rotate(0 -35.74517133148265 22.19167083361387)"><path d="M-50.17471224497126 19.705873339974552 C-58.497460308052354 28.587524677554942, -65.29665522809547 35.93866763087421, -70.34040253940732 44.7317653759609 M-51.043272804087565 21.419124236867994 C-58.59342916209367 27.772563559658508, -65.07635822008997 37.67434928843346, -70.6677284562564 44.3824331541772" stroke="#000000" stroke-width="1" fill="none"></path></g><g transform="translate(346.92499226956556 320.6504824656447) rotate(0 -35.74517133148265 22.19167083361387)"><path d="M-39.71448823365534 37.361006191894106 C-51.47813290897941 40.579533208606605, -61.61537647191723 42.29660062083603, -70.34040253940732 44.7317653759609 M-40.58304879277164 39.07425708878755 C-51.92467530549971 39.24034010046379, -62.029968774938325 43.02817216506346, -70.6677284562564 44.3824331541772" stroke="#000000" stroke-width="1" fill="none"></path></g></g><g><g transform="translate(413.5916589362323 379.47401187740934) rotate(0 -33.485654695367884 112.59954421992069)"><path d="M-0.7343213114887476 -0.8240268733352423 C-11.894382673153807 36.71672929155525, -56.222430351125844 186.97824629931134, -67.62865374587196 224.831503608611 M1.0810212706401945 1.357755072824657 C-10.091191633926858 39.0813838156208, -56.168315350497906 188.85344161035846, -68.05233066137599 226.0231153131766" stroke="#000000" stroke-width="1" fill="none"></path></g><g transform="translate(413.5916589362323 379.47401187740934) rotate(0 -33.485654695367884 112.59954421992069)"><path d="M-70.80932263760124 197.71970081076051 C-70.29888370710795 202.4779745895944, -67.52083135958986 212.11541011422727, -69.55211408231126 225.97760334660538 M-69.83691897066538 196.6171074717122 C-69.57646563810617 203.752499062905, -68.5596552983156 211.96327633285387, -68.8970580909373 226.18536295884527" stroke="#000000" stroke-width="1" fill="none"></path></g><g transform="translate(413.5916589362323 379.47401187740934) rotate(0 -33.485654695367884 112.59954421992069)"><path d="M-51.222510189007 203.84152900905497 C-55.47624531170914 206.98432333693648, -57.48343801236153 215.12613785899313, -69.55211408231126 225.97760334660538 M-50.250106522071135 202.73893567000664 C-54.95346350844857 208.19895435179302, -58.92332011751469 214.85115651294694, -68.8970580909373 226.18536295884527" stroke="#000000" stroke-width="1" fill="none"></path></g></g><g><g transform="translate(503.7877373676047 385.3563648185859) rotate(0 34.31571355804658 114.67190556300477)"><path d="M-0.5320076141506433 -0.5395426657050848 C10.849264298776317 37.791214596721176, 57.62406459649169 191.59337907628537, 69.16343473024385 229.88335379171457 M1.3895496590808034 1.7915934894606473 C12.583066076697934 39.76683665109688, 57.39856983677559 189.9058328207341, 68.49678073528872 228.00836331299777" stroke="#000000" stroke-width="1" fill="none"></path></g><g transform="translate(503.7877373676047 385.3563648185859) rotate(0 34.31571355804658 114.67190556300477)"><path d="M49.7722959663286 204.7715935237859 C58.085692781785134 213.0853734152409, 63.595804046225 221.7222208013227, 68.47997059192227 228.56593287079866 M51.06478155269615 204.34333307167185 C54.76464972141756 209.82065257771436, 58.54888907085651 214.6000062722201, 67.67069516502039 228.03180089029755" stroke="#000000" stroke-width="1" fill="none"></path></g><g transform="translate(503.7877373676047 385.3563648185859) rotate(0 34.31571355804658 114.67190556300477)"><path d="M69.4531254517078 198.95911099449881 C70.42099418294487 209.35359864402372, 68.59047872853958 220.15840671433392, 68.47997059192227 228.56593287079866 M70.74561103807535 198.53085054238477 C70.05455776819053 205.38003236715647, 69.46953035370109 211.44979339688126, 67.67069516502039 228.03180089029755" stroke="#000000" stroke-width="1" fill="none"></path></g></g><g><g transform="translate(588.1014628578009 314.7681295244682) rotate(0 37.4240771121473 31.02500796794712)"><path d="M-0.5956154253333806 1.047803732380271 C12.15837206688825 11.117910043863596, 62.85834790752846 50.21119071229369, 75.44376964962802 60.243972881320964 M1.292547747027129 0.5522967465408146 C14.064749540715702 10.794949168773384, 62.80732247434203 51.73250536956832, 74.98605619323202 61.49771918935338" stroke="#000000" stroke-width="1" fill="none"></path></g><g transform="translate(588.1014628578009 314.7681295244682) rotate(0 37.4240771121473 31.02500796794712)"><path d="M48.44548736708467 53.061790805492535 C51.723753314282625 54.42240440185805, 59.33117776101299 54.33320500427519, 74.79379192878254 60.70940994863967 M46.50964007815574 51.77730691730602 C54.38900319087037 53.71225265433012, 61.68224431360082 56.920492162008436, 74.68658620350756 61.781845200076795" stroke="#000000" stroke-width="1" fill="none"></path></g><g transform="translate(588.1014628578009 314.7681295244682) rotate(0 37.4240771121473 31.02500796794712)"><path d="M61.4864463407263 37.217126358631084 C62.00295303382895 41.840186124868694, 66.8719448718615 45.078161199873264, 74.79379192878254 60.70940994863967 M59.55059905179738 35.93264247044457 C63.983720283921656 42.352127186704834, 67.6746302440026 49.93717123874367, 74.68658620350756 61.781845200076795" stroke="#000000" stroke-width="1" fill="none"></path></g></g></svg>