<svg version="1.1" xmlns="http://www.w3.org/2000/svg" viewBox="0 0 1258.4615384615386 1320.769230769231">
  <!-- svg-source:excalidraw -->
  <defs>
    <style>
      @font-face {
        font-family: "Virgil";
        src: url("https://excalidraw.com/FG_Virgil.woff2");
      }
      @font-face {
        font-family: "Cascadia";
        src: url("https://excalidraw.com/Cascadia.woff2");
      }
    </style>
  </defs>
  <g transform="translate(277.7307692307704 512.5000000000005) rotate(0 106.5 34)"><text x="106.5" y="27" font-family="Cascadia" font-size="28px" fill="#000000" text-anchor="middle" style="white-space: pre;" direction="ltr">hexops/tridex</text><text x="106.5" y="61" font-family="Cascadia" font-size="28px" fill="#000000" text-anchor="middle" style="white-space: pre;" direction="ltr">container-1</text></g><g transform="translate(233.07692307692287 391.53846153846183) rotate(0 150 150)"><path d="M148.73240258020246 -0.661967414571194 C163.72779550988196 -3.2395742098263276, 181.02583435963535 2.683476956067646, 196.09305024356158 7.789892004987706 C211.1602661274878 12.896307053907766, 226.3692911042956 20.759345758239718, 239.1356978837598 29.97652287894917 C251.902104663224 39.19369999965862, 263.47271751425785 50.20421219265047, 272.6914909203468 63.09295472924441 C281.9102643264357 75.98169726583835, 289.9449967719659 92.12068662364184, 294.4483383202934 107.30897809851278 C298.95167986862083 122.49726957338372, 300.2808438635248 138.70625204483719, 299.7115402103116 154.22270357847003 C299.14223655709844 169.73915511210288, 296.53730257012387 185.44361549377166, 291.03251640101416 200.40768730030987 C285.52773023190446 215.3717591068481, 276.5271576337342 231.35443816718245, 266.6828231956533 244.0071344176993 C256.83848875757246 256.65983066821616, 245.18357332892035 267.93252725350374, 231.96650977252892 276.32386480341097 C218.7494462161375 284.7152023533182, 202.76689188331332 290.3712605130684, 187.38044185730482 294.35515971714256 C171.9939918312963 298.3390589212167, 155.26737655761963 301.03735728755277, 139.64780961647784 300.2272600278559 C124.02824267533605 299.417162768159, 108.03843849933033 295.4853624653291, 93.66304021045404 289.49457615896137 C79.28764192157776 283.5037898525936, 65.37209919659381 274.65345837471267, 53.39541988322016 264.2825421896496 C41.418740569846506 253.9116260045865, 30.067696770364662 240.89680599231576, 21.80296433021215 227.2690790485829 C13.538231890059633 213.64135210485006, 7.378870443361331 197.8646096969507, 3.807025242305059 182.5161805272524 C0.23518004124878678 167.1677513575541, -1.2807510551152888 150.90979082862378, 0.37189312387451423 135.1785040303931 C2.024537302864317 119.44721723216243, 7.164497908265536 102.73390141210231, 13.722890316243877 88.12845973786837 C20.28128272422222 73.52301806363442, 29.108416186832557 58.97996773670107, 39.72224757174456 47.54585398498941 C50.336078956656564 36.11174023327774, 63.74830839351896 27.157959348108076, 77.4058786257159 19.523777227598373 C91.06344885791283 11.88959510708867, 109.27189692888051 4.857086993973445, 121.66766896492618 1.7407612619311976 C134.06344100097186 -1.375564470111049, 146.32679763419927 0.6374339524551024, 151.78051084198995 0.8258228353448942 C157.23422404978064 1.0142117182346861, 154.40483809585365 0.6171434588938922, 154.38994821167032 2.871094559269949 M175.79333779129277 3.162692202285797 C191.0324522446185 3.1312713746113445, 205.85023961800795 10.228240953618485, 219.60758136546775 17.41656816137592 C233.36492311292756 24.604895369133356, 247.12119416245932 34.92087243223228, 258.33738827605157 46.292655448830416 C269.5535823896438 57.66443846542855, 280.1082955531101 71.13483190842783, 286.90474604702126 85.64726626096473 C293.7011965409324 100.15970061350163, 297.4186478279881 117.6592501941973, 299.1160912395186 133.36726156405177 C300.8135346510491 149.07527293390626, 300.1028937403556 164.73579140669796, 297.08940651620435 179.8953344800916 C294.0759192920531 195.05487755348526, 288.98727668933697 210.63837807771515, 281.03516789461094 224.32452000441367 C273.0830590998849 238.0106619311122, 261.3472169849337 251.28931218276702, 249.3767537478483 262.01218604028276 C237.40629051076294 272.73505989779846, 223.9190236721997 282.3598310822843, 209.21238847209867 288.6617631495081 C194.50575327199763 294.9636952167319, 176.76296048585073 298.8047333889837, 161.13694254724206 299.82377844362543 C145.5109246086334 300.84282349826714, 130.50612643984056 298.7874701503108, 115.45628084044671 294.7760334773583 C100.40643524105288 290.76459680440576, 84.50593519057114 283.9633282635754, 70.83786895087906 275.75515840591015 C57.16980271118698 267.5469885482449, 43.48311899973103 257.60288405936063, 33.447883402294266 245.5270143313667 C23.4126478048575 233.45114460337277, 16.176308026394942 218.05428345555225, 10.626455366258455 203.2999400379466 C5.076602706121967 188.54559662034097, 1.068023374845391 172.5594315755194, 0.14876744147534282 157.0009538257328 C-0.7704884918947054 141.44247607594622, 0.7245996609790382 124.95415463699696, 5.110919766038165 109.94907353922714 C9.497239871097293 94.94399244145733, 17.28087069150383 80.29429423437894, 26.466688071830106 66.97046723911387 C35.65250545215638 53.64664024384881, 47.585608049162865 39.95728892277335, 60.225824047995815 30.00611156763675 C72.86604004682877 20.05493421250015, 87.50721900589274 12.271311508923823, 102.30798406482782 7.263403108294256 C117.1087491237629 2.2554947076646883, 136.9951662680135 0.5977446846657747, 149.03041440160635 -0.04133883614065326 C161.0656625351992 -0.6804223569470812, 170.22378321403045 2.5453591574100805, 174.51947286638503 3.428901983455688 C178.8151625187396 4.312444809501296, 175.34396013778223 3.0474656998128324, 174.8045523157338 5.259918120132994" stroke="#000000" stroke-width="1" fill="none"></path></g><g transform="translate(52.730769230769965 1047.1153846153848) rotate(0 106.5 34)"><text x="106.5" y="27" font-family="Cascadia" font-size="28px" fill="#000000" text-anchor="middle" style="white-space: pre;" direction="ltr">hexops/tridex</text><text x="106.5" y="61" font-family="Cascadia" font-size="28px" fill="#000000" text-anchor="middle" style="white-space: pre;" direction="ltr">container-2</text></g><g transform="translate(10 928.0769230769232) rotate(0 150 150)"><path d="M191.13451513382216 5.3925613556803 C206.3534275344346 7.179725245202486, 222.24162403288332 17.125600361387335, 235.30936877728448 26.304855518139192 C248.37711352168563 35.48411067489105, 260.1850084524291 47.88862963186102, 269.540983600229 60.46809229619144 C278.89695874802896 73.04755496052186, 286.4659464172624 86.9680147200054, 291.445219664084 101.78163150412172 C296.4244929109056 116.59524828823804, 299.2791875448483 133.47630864438457, 299.4166230811586 149.34979300088935 C299.5540586174689 165.22327735739412, 297.2179928651274 181.91624246369463, 292.26983288194583 197.02253764315043 C287.32167289876423 212.12883282260623, 279.14805704632687 227.43086674967128, 269.7276631820689 239.98756407762409 C260.30726931781095 252.5442614055769, 248.5864149370991 263.4043811264046, 235.7474696963982 272.3627216108673 C222.90852445569732 281.32106209533003, 207.92146951708895 289.0283233375047, 192.6939917378636 293.7376069844006 C177.46651395863825 298.4468906312965, 160.15990286318322 301.11800795332374, 144.382603021046 300.6184234922428 C128.6053031789088 300.1188390311619, 112.90056495283375 296.4726241126157, 98.03019268504038 290.7401002179152 C83.159820417247 285.0075763232147, 67.57967399849744 276.08501471836666, 55.160369414285796 266.22328012404 C42.74106483007416 256.36154552971334, 32.03802163345841 244.85590628792644, 23.514365179770536 231.56969265195528 C14.990708726082657 218.2834790159841, 7.795371208844729 201.81732538705063, 4.018430692158518 186.50599830821304 C0.24149017547230534 171.19467122937544, -0.2535847282347181 155.21941869154182, 0.8527220796532617 139.70173017892964 C1.9590288875412416 124.18404166631744, 4.65027840986716 108.18223344869159, 10.656271539486397 93.39986723253989 C16.662264669105635 78.61750101638819, 26.439208355248034 62.95777725809739, 36.88868085736868 51.00753288201946 C47.33815335948933 39.057288505941536, 59.68979222967263 29.520124635428118, 73.3531065522103 21.69840097607232 C87.01642087474798 13.876677316716524, 103.25003638593023 7.535213231303217, 118.86856679259472 4.077190925884679 C134.4870971992592 0.6191686204661409, 153.61793347164163 0.34181299802070464, 167.06428899219728 0.9502671435610921 C180.51064451275292 1.5587212891014794, 193.26822179185987 5.529391435675754, 199.5466999159285 7.727915799127004 C205.82517803999716 9.926440162578254, 205.66510448331587 11.817094841927867, 204.73515773660907 14.141413324268598 M114.76010316045688 4.5326073123459025 C128.598495305824 -1.4290011823857656, 144.82079480249334 -2.1414770862791386, 160.34946217002067 -0.906093119908121 C175.878129537548 0.3292908464628965, 193.32120423845782 5.552126524304346, 207.93210736562082 11.944911110572008 C222.54301049278382 18.33769569683967, 236.28392881664126 27.352584316268924, 248.01488093299872 37.45061439769785 C259.7458330493562 47.54864447912677, 270.17970962108 59.18357331533509, 278.3178200637656 72.53309159914555 C286.45593050645124 85.882609882956, 293.33979550452 101.83969437750505, 296.8435435891125 117.5477241005606 C300.34729167370506 133.25575382361615, 300.9599533057853 150.95057033135572, 299.34030857132075 166.78126993747878 C297.7206638368562 182.61196954360184, 293.973724740219 198.04161850509115, 287.1256751823254 212.53192173729903 C280.2776256244318 227.0222249695069, 269.27107622439297 242.145211986427, 258.25201122395924 253.7230893307261 C247.23294622352552 265.3009666750252, 234.75444108199787 274.41077717532835, 221.01128517972296 281.9991858030936 C207.26812927744805 289.58759443085887, 191.24082712873175 296.6624842606202, 175.79307581030986 299.2535410973176 C160.34532449188796 301.84459793401504, 143.73444686821352 300.35856099755364, 128.3247772691916 297.5455268232781 C112.91510767016968 294.7324926490026, 97.6076039558238 289.41634756836356, 83.33505821617828 282.3753360516645 C69.06251247653276 275.3343245349654, 54.23697685745558 266.3809770237259, 42.689502831318435 255.29945772308344 C31.14202880518129 244.21793842244097, 21.147014137514034 229.93160021061044, 14.050214059355397 215.88622024780966 C6.953413981196761 201.84084028500888, 2.211426594290321 186.7357320462819, 0.10870236236661412 171.02717794627884 C-1.9940218695570926 155.31862384627578, -1.5421957061737666 137.177869416497, 1.433868667813158 121.63489564779127 C4.409933041800082 106.09192187908553, 10.009812274905595 91.50142298241873, 17.965088606288163 77.76933533404447 C25.92036493767073 64.03724768567021, 37.18731157913158 49.91189384764799, 49.165526656108554 39.24236975754573 C61.14374173308553 28.572845667443474, 78.93036249946965 19.55377133031106, 89.83437906815001 13.752190793430913 C100.73839563683038 7.950610256550765, 110.46047321630594 5.598756905309159, 114.58962606819075 4.432886536264846 C118.71877892007556 3.2670161672205325, 114.26483146237426 4.410492670733717, 114.60929617945885 6.756968579165033" stroke="#000000" stroke-width="1" fill="none"></path></g><g transform="translate(721.9615384615395 1125.9615384615386) rotate(0 106.5 34)"><text x="106.5" y="27" font-family="Cascadia" font-size="28px" fill="#000000" text-anchor="middle" style="white-space: pre;" direction="ltr">hexops/tridex</text><text x="106.5" y="61" font-family="Cascadia" font-size="28px" fill="#000000" text-anchor="middle" style="white-space: pre;" direction="ltr">container-3</text></g><g transform="translate(677.3076923076928 1010.7692307692311) rotate(0 150 150)"><path d="M111.66653565241148 5.042739002601422 C125.50483116723 -1.1629401516566888, 142.2299488821889 0.16537678222495344, 157.85871124854575 1.151941451571446 C173.4874736149026 2.1385061209179383, 190.72612005470185 5.402587756261792, 205.43910985055254 10.962127018680377 C220.15209964640323 16.521666281098963, 234.04846503416294 24.44803971676967, 246.1366500236499 34.50917702608295 C258.22483501313684 44.57031433539623, 269.47792417701083 57.77879312604425, 277.9682197874743 71.32895087456005 C286.4585153979378 84.87910862307585, 293.66059181875477 100.41982169176468, 297.0784236864307 115.81012351717777 C300.49625555410665 131.20042534259088, 300.05034642770994 148.05255151405893, 298.47521099352997 163.6707618270386 C296.90007555935 179.28897214001827, 293.8891560259173 194.88907996923294, 287.6276110813509 209.51938539505585 C281.36606613678447 224.14969082087876, 271.70037558128325 239.5995590285142, 260.9059413261313 251.45259438197604 C250.1115070709794 263.3056297354379, 236.61944399012413 272.9081096389401, 222.8610055504394 280.6375975158269 C209.10256711075465 288.36708539271365, 193.90306108098278 294.80577595443003, 178.35531068802294 297.82952164329674 C162.8075602950631 300.85326733216345, 145.30713683937873 301.0007835339931, 129.57450319268034 298.7800716490271 C113.84186954598195 296.55935976406107, 98.03726096051297 291.56954567018, 83.95950880783256 284.5052503335007 C69.88175665515216 277.44095499682146, 56.31842780018067 267.45212377321724, 45.1079902765979 256.3942996289515 C33.897552753015134 245.33647548468574, 23.968946610622854 232.11846385990225, 16.696883666335935 218.1583054679062 C9.424820722049017 204.19814707591013, 4.029704461629038 188.08173291363542, 1.4756126108763965 172.63334927697505 C-1.0784792398762448 157.1849656403147, -1.1723932040428955 140.95075704083774, 1.3723325618200874 125.46800364794392 C3.9170583276830704 109.98525025505008, 9.175013472171837 93.72664366697016, 16.743967206054293 79.73682891961204 C24.31292093993675 65.74701417225391, 35.05971003336823 52.39114458881455, 46.78605496511483 41.52911516379517 C58.512399896861425 30.66708573877579, 75.56428219639909 20.697025594642234, 87.10203679653388 14.564652369495747 C98.63979139666867 8.432279144349259, 110.17725220589939 6.302551980929668, 116.01258256592358 4.734875812916243 C121.84791292594777 3.1671996449028184, 121.6697034845624 2.895804755784065, 122.11401895667902 5.158595361415195 M116.45123560660059 3.2630256616338897 C130.66581638480295 -2.7138437415134407, 150.0490172792735 -2.269681979365359, 166.06596626491165 -0.49657477119225746 C182.0829152505498 1.276532436980844, 198.33286865033446 7.024893156873723, 212.55292952042953 13.901668910672498 C226.7729903905246 20.778444664471273, 240.05917944211572 30.205311990525203, 251.38633148548206 40.76407975160039 C262.71348352884837 51.32284751267558, 273.008937912763 63.33459246199949, 280.5158417806275 77.25427547712364 C288.02274564849205 91.17395849224779, 293.58102809037774 108.65595530603228, 296.4277546926694 124.28217784234528 C299.27448129496105 139.90840037865829, 299.78539949982525 155.5676980796993, 297.5962013943773 171.01161069500162 C295.4070032889294 186.45552331030393, 290.1026332459281 202.69076458181684, 283.2925660599817 216.9456535341592 C276.48249887403534 231.20054248650155, 267.6874545498848 245.48202706825296, 256.73579827869924 256.5409444090558 C245.78414200751365 267.5998617498586, 231.9097433415571 276.3416113434582, 217.5826284328682 283.29915757897606 C203.25551352417932 290.2567038144939, 186.24325722543642 295.6632056434119, 170.773108826566 298.2862218221628 C155.30296042769555 300.9092380009137, 140.02789649185544 301.7821405850443, 124.76173803964568 299.0372546514815 C109.49557958743593 296.29236871791863, 93.14430766144763 289.7865098647189, 79.17615811330747 281.81690622078565 C65.2080085651673 273.8473025768524, 52.148610731337506 262.67064499258186, 40.952840750804725 251.21963278788203 C29.757070770271945 239.76862058318218, 18.919124149701442 227.32642213957098, 12.001538230110782 213.11083299258655 C5.083952310520121 198.89524384560212, 0.8657313155624611 181.88450763534505, -0.5526747667392442 165.9260979059755 C-1.9710808490409495 149.96768817660595, -0.2538907710446856 132.933035729884, 3.49110173630055 117.3603746163692 C7.236094243645786 101.7877135028544, 13.62208242569624 86.15378015056112, 21.917280277332168 72.49013122488668 C30.212478128968094 58.826482299212245, 41.474997086237074 45.42434105380598, 53.26228884611612 35.37848106232258 C65.04958060599516 25.332621070839174, 81.66209387021556 17.40942174575552, 92.64103083660643 12.214971275986272 C103.61996780299731 7.020520806217026, 114.91071603093278 5.289218467749758, 119.13591064446142 4.211778243707101 C123.36110525799006 3.134338019664445, 117.82682564647784 3.480943712391228, 117.99219851777829 5.7503299317303345" stroke="#000000" stroke-width="1" fill="none"></path></g><g transform="translate(995.0384615384619 675.9615384615383) rotate(0 106.5 34)"><text x="106.5" y="27" font-family="Cascadia" font-size="28px" fill="#000000" text-anchor="middle" style="white-space: pre;" direction="ltr">hexops/tridex</text><text x="106.5" y="61" font-family="Cascadia" font-size="28px" fill="#000000" text-anchor="middle" style="white-space: pre;" direction="ltr">container-4</text></g><g transform="translate(948.4615384615386 558.8461538461539) rotate(0 150 150)"><path d="M85.30079815935937 14.286444980860693 C97.89359217832327 5.609813541447904, 115.59561015869426 2.645198481359145, 131.36626816226354 0.8566923304610441 C147.13692616583282 -0.931813820437057, 164.36039615534136 0.45165581279995104, 179.92474618077503 3.555408075472087 C195.4890962062087 6.659160338144224, 211.13189046567453 11.648448144915374, 224.75236831486552 19.47920590649386 C238.3728461640565 27.309963668072346, 251.10661848094452 38.778617029044085, 261.647613275921 50.53995464494301 C272.1886080708975 62.30129226084193, 281.72813138342224 75.73200062095786, 287.99833708472437 90.04723160188742 C294.2685427860265 104.36246258281697, 297.87412247364944 120.76014359034943, 299.2688474837339 136.43134053052034 C300.6635724938184 152.10253747069126, 299.9346401852475 168.6119647949155, 296.36668714523137 184.07441324291295 C292.79873410521526 199.5368616909104, 286.41547807438013 215.7495688015207, 277.86112924363715 229.20603121850502 C269.30678041289417 242.66249363548934, 257.3819968867529 254.5953695023409, 245.0405941607735 264.81318774481883 C232.6991914347941 275.03100598729674, 218.40832900318992 284.75848337678866, 203.81271288776068 290.51294067337255 C189.21709677233144 296.26739796995645, 173.04678675663592 298.5238089440047, 157.46689746819808 299.33993152432225 C141.88700817976024 300.1560541046398, 125.51398086406212 299.56111967357697, 110.33337715713355 295.4096761552777 C95.15277345020499 291.2582326369784, 79.63544692684155 283.48978394550693, 66.3832752266267 274.43127041452635 C53.131103526411835 265.3727568835458, 40.4315837613239 253.61619611142885, 30.820346955844386 241.05859496939433 C21.20911015036487 228.50099382735982, 13.730307169732914 213.84413934796268, 8.715854393749623 199.08566356231924 C3.701401617766334 184.3271877766758, 0.8557500654242602 168.1080816692989, 0.7336302999446502 152.50774025553366 C0.6115105344650402 136.9073988417684, 3.4345421829542344 120.69414469283696, 7.983135800871963 105.4836150797278 C12.531729418789691 90.27308546661864, 19.015812828890155 74.1583359590614, 28.025192007451025 61.24456257687868 C37.034571186011895 48.33078919469596, 50.720412915103154 36.69772207743544, 62.03941087223717 28.000974786631474 C73.35840882937119 19.30422749582751, 87.97244026388486 12.440465902233688, 95.93917975025514 9.064078832054918 C103.90591923662541 5.687691761876147, 108.8375128799068 5.282824349009047, 109.83984779045878 7.742652365558854 M206.42237903388744 11.095357752501627 C221.26719690386304 14.670764640977204, 234.29150545198198 25.263271823051205, 246.33297928777495 35.437562289573364 C258.3744531235679 45.61185275609552, 270.167681704474 58.53846097959067, 278.67122204864523 72.14110055163458 C287.1747623928165 85.74374012367849, 293.6641486929492 101.7792156935882, 297.35422135280237 117.05339972183684 C301.04429401265554 132.3275837500855, 302.57285731864056 148.24121203348219, 300.8116580077643 163.78620472112644 C299.0504586968881 179.3311974087707, 293.50873872432965 195.59351272822033, 286.7870254875448 210.32335584770243 C280.0653122507599 225.05319896718453, 271.10653946653946 240.55942015744012, 260.4813785870553 252.16526343801894 C249.85621770757115 263.77110671859776, 236.55505787184288 272.5593279020445, 223.03606021063976 279.95841553117543 C209.51706254943664 287.35750316030635, 194.97648618552935 293.30407326842374, 179.3673926198366 296.5597892128044 C163.75829905414386 299.81550515718504, 145.1744457497127 301.29236875839945, 129.38149881648334 299.4927111974593 C113.58855188325398 297.69305363651915, 98.78776647549991 292.67572606364956, 84.60971102046042 285.7618438471636 C70.43165556542094 278.8479616306777, 55.39672671809858 268.9678732889544, 44.313166086246454 258.0094178985436 C33.22960545439433 247.05096250813273, 25.133344305516186 234.09161154882844, 18.108347229347686 220.01111150469862 C11.083350153179186 205.9306114605688, 4.846894072052356 189.2727258144909, 2.163183629235448 173.5264176337646 C-0.5205268135814598 157.78010945303828, -0.6298355984310198 141.3062477248949, 2.006084572446241 125.53326242034063 C4.642004743323502 109.76027711578638, 10.421635652633608 92.73345692118893, 17.978704654499012 78.88850580643904 C25.535773656364416 65.04355469168915, 36.1648261037365 53.47716020716032, 47.34849858363867 42.46355573184128 C58.532171063540844 31.449951256522247, 70.92993532576294 19.48706596980889, 85.08073953391204 12.80687895452482 C99.23154374206113 6.12669193924075, 116.58627314459498 3.946036140773951, 132.25332383253325 2.382433640136867 C147.92037452047154 0.8188311394997829, 166.883240879115 2.2036035073094054, 179.0830436615417 3.425263950702316 C191.2828464439684 4.646924394095227, 201.45832347349244 8.118802754149277, 205.45214052709343 9.712396300494333 C209.44595758069443 11.30598984683939, 204.20638254643086 10.510788359466597, 203.04594598314756 12.986825228772659" stroke="#000000" stroke-width="1" fill="none"></path></g><g transform="translate(636.9230769230765 175.38461538461547) rotate(0 162.5000000000001 53.846153846153896)"><path d="M-0.2693255661349146 -0.8496988984701778 C100.24218128199524 -2.0740447680800163, 198.66386863648833 -1.8598166108911238, 326.2996656295731 0.3298131126472799 M-0.38889616189182524 -0.34802268030857275 C79.41830156563529 1.1557256782266931, 157.88931063605028 1.3820204514503316, 325.6898154327861 0.5349000063057017 M324.03199165500723 1.269178843125701 C324.99271779851296 40.438540693802366, 322.6507990320144 77.0085125145718, 325.6919653359803 109.55104078567382 M325.93637968879216 -0.01604232471436262 C323.8075686854384 26.98631577688057, 324.3077025872729 53.36223669128068, 324.87174843531125 106.86102859052625 M324.95901327865766 107.26692176613814 C248.51873801928886 106.62118060030075, 172.5134254586658 105.78573351594301, 0.8469681174621726 108.4124177088657 M325.62456127849754 107.99962203696498 C241.81979461095895 107.28044239735866, 157.7743186823043 107.01480224033021, -0.033972564828522483 108.33475885469804 M-1.0893785413354635 106.30073888814803 C0.48849286224979704 84.66533737070867, -0.8866938791022843 64.99683000304957, 0.7793849650770426 1.6916492339223623 M-0.842287820763886 107.6169115987679 C-0.4346503651915845 67.31835734364225, -1.7412162161647138 25.154169123978008, -0.07506520766764879 0.5273606749251485" stroke="#000000" stroke-width="1" fill="none"></path></g><g transform="translate(658.50626118068 198.2692307692309) rotate(0 139.01610017889084 31.461538461538453)"><text x="139.0161001788908" y="25.461538461538453" font-family="Cascadia" font-size="26.33989266547405px" fill="#000000" text-anchor="middle" style="white-space: pre;" direction="ltr">HTTP load balancer</text><text x="139.0161001788908" y="56.923076923076906" font-family="Cascadia" font-size="26.33989266547405px" fill="#000000" text-anchor="middle" style="white-space: pre;" direction="ltr">(optional)</text></g><g transform="translate(639.8076923076926 10) rotate(0 162.5000000000001 37.500000000000085)"><path d="M-0.347760332686886 0.35870887131665624 C93.35171536602157 0.5963965432989389, 186.8177471218742 0.013731086840370665, 325.70982633091666 0.9738596664917314 M-0.21216078182018536 0.3550927578265739 C117.6476083254143 -0.0898130868284866, 236.77406571889605 -0.22600987494518004, 325.64802798027716 0.18836394791985292 M324.61946695484244 -0.7106228116899729 C326.32265292829857 29.078151319641684, 326.77478628582344 53.138140889816114, 325.2709720078858 75.08979264460521 M324.8013143716382 -0.7539666621014476 C324.6778801765761 16.199206104967782, 324.75425461796135 33.29767020046719, 325.78571723680966 74.3567380281167 M324.89402347328735 74.65818304259197 C256.24174853448284 75.87268304350594, 187.04947609520528 74.03299022831324, -0.6527172434501495 75.30888541781465 M324.36387834008775 75.49370636494582 C255.5423976494092 75.64004103085526, 186.17610251597398 74.89404955858025, -0.12756638660014413 75.46304842443914 M-0.16898698173463345 73.82940468750911 C-1.705242205178365 52.19913227064547, 1.9040528649929913 31.000109472312104, -1.7374030407518148 1.817819869145751 M-0.31397728342562914 75.002551761456 C-0.3501163006294508 52.988301131408775, 0.5196560441982012 29.33327005244798, 0.8025724170729518 0.9731445284560323" stroke="#000000" stroke-width="1" fill="none"></path></g><g transform="translate(661.4069767441872 32.88461538461547) rotate(0 139 15.5)"><text x="139" y="25" font-family="Cascadia" font-size="26.33989266547405px" fill="#000000" text-anchor="middle" style="white-space: pre;" direction="ltr">Search API clients</text></g><g><g transform="translate(794.6153846153845 90.76923076923089) rotate(0 0.6513475323747571 36.2617615093119)"><path d="M-0.35570938847959044 -0.8478912983089686 C-0.22120167277753355 11.353540535166099, 0.9487466786056757 61.0483588720075, 1.0391393277794123 73.37141431693276 M1.658404453229159 1.3213618247397245 C1.7055074308626355 13.128682349759325, 0.9932198159210386 59.221170221879994, 0.6366420112363995 71.40344746915912" stroke="#000000" stroke-width="1" fill="none"></path></g><g transform="translate(794.6153846153845 90.76923076923089) rotate(0 0.6513475323747571 36.2617615093119)"><path d="M-10.438310150473388 44.733768561609935 C-5.410392555671379 52.41137783270369, -2.7932710931946856 60.73939951529563, -1.2729886505939065 71.62177025845563 M-8.602071981362077 43.78642973372425 C-7.550160678462818 50.075124026058546, -5.544697124640664 55.6513806431765, 0.49083383882418286 71.09715695904856" stroke="#000000" stroke-width="1" fill="none"></path></g><g transform="translate(794.6153846153845 90.76923076923089) rotate(0 0.6513475323747571 36.2617615093119)"><path d="M10.078303945648084 45.167990183214854 C8.553834532902968 52.64611838126222, 4.619158166202073 60.83547525958946, -1.2729886505939065 71.62177025845563 M11.914542114759396 44.22065135532917 C8.19092808759154 50.29931202002105, 5.416674901874664 55.77440884811479, 0.49083383882418286 71.09715695904856" stroke="#000000" stroke-width="1" fill="none"></path></g></g><g><g transform="translate(794.6153846153845 283.0769230769232) rotate(0 -131.4652754239171 90.38550864627152)"><path d="M-0.06783064864575872 -0.653240779414773 C-43.72227540338075 29.759388021943266, -218.35207194656311 151.31199052243082, -262.4472015920452 181.4242580719578 M-1.5625804685242475 1.6182038660533729 C-45.24074539292267 31.774522844017596, -219.39610551053838 149.757823873391, -262.8627201991885 179.64557265711085" stroke="#000000" stroke-width="1" fill="none"></path></g><g transform="translate(794.6153846153845 283.0769230769232) rotate(0 -131.4652754239171 90.38550864627152)"><path d="M-246.44245001463142 156.9756178900352 C-248.96866534444484 159.56482630131975, -255.8016880533244 168.2400178165314, -263.70120824713104 180.98901042376713 M-245.78907904470262 155.84570732319116 C-252.53217049043283 164.78415201229475, -257.75491449229526 172.44316799537597, -261.9515069623276 178.81972917110727" stroke="#000000" stroke-width="1" fill="none"></path></g><g transform="translate(794.6153846153845 283.0769230769232) rotate(0 -131.4652754239171 90.38550864627152)"><path d="M-234.88014099764408 173.9294673815676 C-240.2249418331487 172.16140522240838, -250.02511023584867 176.48586182484684, -263.70120824713104 180.98901042376713 M-234.22677002771528 172.79955681472356 C-244.95752187030132 175.67281154754386, -254.27588678144352 177.32640591732223, -261.9515069623276 178.81972917110727" stroke="#000000" stroke-width="1" fill="none"></path></g></g><g><g transform="translate(792.6923076923076 283.0769230769232) rotate(0 90.03555546232064 156.0377216821916)"><path d="M0.08881025053560743 0.5596036043018102 C30.394953422811927 52.53000588815372, 151.2241189239785 260.5112460350474, 181.394814021914 312.267651813162 M-1.3237030972726642 -0.19220844877883803 C28.917836259328872 51.397407397680844, 150.46662402857618 258.46515006859283, 180.77519976594553 310.5279019586011" stroke="#000000" stroke-width="1" fill="none"></path></g><g transform="translate(792.6923076923076 283.0769230769232) rotate(0 90.03555546232064 156.0377216821916)"><path d="M158.61774786946515 292.4173125954097 C165.04792138472416 296.97092131418265, 169.17502998996042 300.6526778863649, 180.02990971938775 310.63206456780574 M158.3677200573791 291.3247953898957 C164.95394900501765 296.89372715238784, 171.38894361180377 302.9969784820199, 181.18412981708602 309.99040056105844" stroke="#000000" stroke-width="1" fill="none"></path></g><g transform="translate(792.6923076923076 283.0769230769232) rotate(0 90.03555546232064 156.0377216821916)"><path d="M176.3312685412997 282.05627076582863 C178.13834306514525 289.3496309804456, 177.6039099232817 295.7580295300659, 180.02990971938775 310.63206456780574 M176.08124072921365 280.9637535603146 C177.31638859417598 289.77539706607706, 178.40782608933847 299.00421669904034, 181.18412981708602 309.99040056105844" stroke="#000000" stroke-width="1" fill="none"></path></g></g><g><g transform="translate(792.6923076923076 283.0769230769232) rotate(0 15.794515120466485 358.626099270383)"><path d="M-0.605983093008399 -0.2098826084285974 C4.316647963789402 119.27539854020071, 24.727206134633715 597.575017213831, 29.925839312403195 717.1586797864104 M1.276737053822726 -1.3656749231927097 C6.5434204343195255 118.2893234997448, 27.453832024825363 598.6233626546992, 32.195013333941546 718.6178734639587" stroke="#000000" stroke-width="1" fill="none"></path></g><g transform="translate(792.6923076923076 283.0769230769232) rotate(0 15.794515120466485 358.626099270383)"><path d="M20.415232633573474 689.4749601659179 C24.374291257809126 699.8554027180235, 28.397163918267506 710.3796387903394, 31.63941042021915 719.1096251701864 M21.4398581966362 691.1755147668347 C23.947142385122856 700.2548219452353, 29.33744341554907 712.0248493322422, 32.75301251550272 717.7963666032928" stroke="#000000" stroke-width="1" fill="none"></path></g><g transform="translate(792.6923076923076 283.0769230769232) rotate(0 15.794515120466485 358.626099270383)"><path d="M40.91850673024955 688.6171993004015 C38.061901716701875 699.179312481257, 35.26734523238461 709.9887578277722, 31.63941042021915 719.1096251701864 M41.943132293312274 690.3177539013183 C36.91153818364416 699.6207557763787, 34.770359940016846 711.7058649474103, 32.75301251550272 717.7963666032928" stroke="#000000" stroke-width="1" fill="none"></path></g></g><g><g transform="translate(792.6923076923076 283.0769230769232) rotate(0 -254.0615651132108 345.0814086682994)"><path d="M0.39812532328069206 1.1074800822883846 C-84.48043350408282 116.16868339179989, -423.83031154472667 574.9032193704961, -508.52125554970246 689.519514156448 M-0.85199761133641 0.6433031801506877 C-85.41674418880102 115.465621359972, -421.6294593592761 573.6190632513059, -506.2444986384619 687.9523766474969" stroke="#000000" stroke-width="1" fill="none"></path></g><g transform="translate(792.6923076923076 283.0769230769232) rotate(0 -254.0615651132108 345.0814086682994)"><path d="M-495.94212572269504 657.787357604226 C-499.29354169631097 669.5391725405215, -503.5495602420263 680.1348735321973, -507.3247005865235 689.5241417667067 M-497.6589158707521 658.6101207426767 C-500.40106679014815 665.1407518516977, -502.0021510471458 673.373838960905, -506.01993212199545 688.0026929989627" stroke="#000000" stroke-width="1" fill="none"></path></g><g transform="translate(792.6923076923076 283.0769230769232) rotate(0 -254.0615651132108 345.0814086682994)"><path d="M-479.4189497824649 669.95718337266 C-488.6741809117995 677.3521567978189, -498.91998486889577 683.5361971553348, -507.3247005865235 689.5241417667067 M-481.13573993052194 670.7799465111107 C-487.73960062686535 674.4451907160272, -493.2022084203124 679.8341473257901, -506.01993212199545 688.0026929989627" stroke="#000000" stroke-width="1" fill="none"></path></g></g><g><g transform="translate(306.23076923076906 1099.4615384615386) rotate(0 186.6636032820694 24.887105693034812)"><path d="M0.10459874533116809 -0.5139641191810369 C62.19994537372811 7.870827537154157, 310.19072928674143 41.431861831123626, 372.31492608908854 50.043400237336755 M-1.299625642709434 -1.82939922709018 C61.20352590755297 6.786775797021885, 312.41608944717416 43.062166080685955, 374.6268322068482 51.60361061315984" stroke="#000000" stroke-width="1" fill="none"></path></g></g><g><g transform="translate(304.30769230769215 1034.0769230769233) rotate(0 326.49792692750555 -136.9783448864348)"><path d="M1.0930265989154575 -0.11304375194013128 C109.98274639234519 -45.76940792540137, 544.3303236551869 -228.34940457390863, 652.7881270210044 -273.84364602092944 M0.2077268340066074 -1.2179956670477987 C109.06325899940558 -46.74535251414452, 543.8237785513613 -227.6181113408344, 652.2942328587891 -272.7087503153115" stroke="#000000" stroke-width="1" fill="none"></path></g></g><g><g transform="translate(210.07692307692287 936.0000000000001) rotate(0 55.717360927193226 -129.2226400982066)"><path d="M-1.120854678377509 0.8238200392574073 C17.600157567619917 -42.0555918815713, 93.6945607009512 -214.16809669732098, 112.55557653276405 -257.3344177215432 M0.4915578861348333 0.21072161452844718 C19.123464887853352 -43.03793689345751, 93.63250927692097 -216.38238605980743, 112.1415164411456 -259.2691002356706" stroke="#000000" stroke-width="1" fill="none"></path></g></g><g><g transform="translate(906.230769230769 1034.0769230769233) rotate(0 61.17006144013408 -96.3194628956785)"><path d="M-0.14397304393351074 0.6771962855011224 C20.478564873729383 -31.205236619414823, 103.38885574983674 -159.3953816831208, 124.01882050160607 -191.57710543581507 M-1.6786976213380695 -0.012879609949886905 C18.843420645054913 -32.21229896482272, 102.75823230339455 -161.4597648939214, 123.56527118593743 -193.3161220768582" stroke="#000000" stroke-width="1" fill="none"></path></g></g><g><g transform="translate(952.3846153846152 672.5384615384617) rotate(0 -211.13627640970196 -51.51075832949806)"><path d="M-0.25272346995770933 -0.014618328586220697 C-70.79456127623145 -17.295570095981923, -352.7237034325512 -85.82941831899566, -423.1182622623845 -103.00689833040992 M1.815457978975028 -1.0678968964330853 C-68.8996351951738 -18.298711362741408, -353.2611127574393 -85.15493999439983, -424.08801079837895 -102.03847931803847" stroke="#000000" stroke-width="1" fill="none"></path></g></g><g><g transform="translate(777.3846153846152 1020.6153846153846) rotate(0 -147.73149446986906 -183.36222214913712)"><path d="M-0.5207685861736536 -0.42042318843305104 C-49.83029813857223 -61.36760086662684, -246.75710168189536 -305.2860560018378, -296.00157500565626 -366.30402110984113 M1.4066891767457128 -1.6867493076995015 C-48.034903141012755 -62.45567367259029, -247.19089124153538 -304.5618893838109, -296.8696781164838 -365.24928386436335" stroke="#000000" stroke-width="1" fill="none"></path></g></g></svg>