<svg version="1.1" xmlns="http://www.w3.org/2000/svg" viewBox="0 0 693.5293595553392 458.3400752483833">
  <!-- svg-source:excalidraw -->
  <defs>
    <style>
      @font-face {
        font-family: "Virgil";
        src: url("https://excalidraw.com/FG_Virgil.woff2");
      }
      @font-face {
        font-family: "Cascadia";
        src: url("https://excalidraw.com/Cascadia.woff2");
      }
    </style>
  </defs>
  <rect x="0" y="0" width="693.5293595553392" height="458.3400752483833" fill="#ffffff"></rect><g transform="translate(93.47691200539612 209.30150933373625) rotate(0 254.5 86.5)"><text x="254.5" y="140" font-family="Cascadia" font-size="144.63157894736833px" fill="#000000" text-anchor="middle" style="white-space: pre;" direction="ltr">Tridex</text></g><g transform="translate(8.029197718458818 303.1348223220175) rotate(266.42619925212335 50 45)"><text x="50" y="66" font-family="Virgil" font-size="57.47368421052633px" fill="#000000" text-anchor="middle" style="white-space: pre;" direction="ltr">t□□</text></g><g transform="translate(114.60851129781713 352.67338823666455) rotate(0 238.59041218585287 47.833343505859375)"><text x="238.59041218585284" y="70" font-family="Virgil" font-size="60.60182946162524px" fill="#000000" text-anchor="middle" style="white-space: pre;" direction="ltr">Powerful Search</text></g><g><g transform="translate(117.69171080346041 432.92036164549745) rotate(0 235.4290441043637 0.3538868593124107)"><path d="M0.9978362325578927 0.9527818020433185 C79.63910544745805 0.9953850218869116, 392.4700186532082 1.3520628811006088, 470.7955266834159 1.2865198149334596 M0.06256152531132098 0.4073883027769627 C78.68427426731395 0.6094882859691351, 391.71215196765 -0.7907156944501562, 470.1259235971343 -0.564058082626392" stroke="#000000" stroke-width="1" fill="none"></path></g></g><g transform="translate(38.94194635641088 178.80150933373625) rotate(295.5175276162102 45 45)"><text x="45" y="66" font-family="Virgil" font-size="57.47368421052633px" fill="#000000" text-anchor="middle" style="white-space: pre;" direction="ltr">tr□</text></g><g transform="translate(118.6869093498317 82.96810479272062) rotate(321.4869103514088 35.92105263157896 45.5)"><text x="35.921052631578945" y="66" font-family="Virgil" font-size="57.47368421052633px" fill="#000000" text-anchor="middle" style="white-space: pre;" direction="ltr">tri</text></g><g transform="translate(213.77471002828588 25.4683184157675) rotate(341.1441890309493 36.5 45)"><text x="36.5" y="66" font-family="Virgil" font-size="57.47368421052633px" fill="#000000" text-anchor="middle" style="white-space: pre;" direction="ltr">rid</text></g><g transform="translate(324.4415801454734 10.801539851314374) rotate(358.79217775642184 38.5 45)"><text x="38.5" y="66" font-family="Virgil" font-size="57.47368421052633px" fill="#000000" text-anchor="middle" style="white-space: pre;" direction="ltr">ide</text></g><g transform="translate(444.4412139345359 52.80138726342375) rotate(29.840754080259245 53.5 45)"><text x="53.5" y="66" font-family="Virgil" font-size="57.47368421052633px" fill="#000000" text-anchor="middle" style="white-space: pre;" direction="ltr">dex</text></g><g transform="translate(543.4414580751609 152.134700251705) rotate(63.97554425014536 54.5 45)"><text x="54.5" y="66" font-family="Virgil" font-size="57.47368421052633px" fill="#000000" text-anchor="middle" style="white-space: pre;" direction="ltr">ex□</text></g><g transform="translate(586.6084502626609 297.46837945092375) rotate(88.95697331058994 51 45)"><text x="51" y="66" font-family="Virgil" font-size="57.47368421052633px" fill="#000000" text-anchor="middle" style="white-space: pre;" direction="ltr">x□□</text></g></svg>