<svg version="1.1" xmlns="http://www.w3.org/2000/svg" viewBox="0 0 1192.07835716416 533.0158957347262">
  <!-- svg-source:excalidraw -->
  <defs>
    <style>
      @font-face {
        font-family: "Virgil";
        src: url("https://excalidraw.com/FG_Virgil.woff2");
      }
      @font-face {
        font-family: "Cascadia";
        src: url("https://excalidraw.com/Cascadia.woff2");
      }
    </style>
  </defs>
  <rect x="0" y="0" width="1192.07835716416" height="533.0158957347262" fill="#ffffff"></rect><g transform="translate(131.9871710445782 82.51589573472614) rotate(0 462.2209302325582 156.5)"><text x="0" y="252" font-family="Cascadia" font-size="262.0465116279072px" fill="#000000" text-anchor="start" style="white-space: pre;" direction="ltr">Tridex</text></g><g transform="translate(77.98717104457819 330.51589573472614) rotate(0 75.45348837209303 51.5)"><text x="0" y="83.00000000000006" font-family="Cascadia" font-size="86.23255813953492px" fill="#000000" text-anchor="start" style="white-space: pre;" direction="ltr">__T</text></g><g transform="translate(170.03368267248516 420.01589573472614) rotate(0 76 51.5)"><text x="0" y="83" font-family="Cascadia" font-size="86.23255813953492px" fill="#000000" text-anchor="start" style="white-space: pre;" direction="ltr">_Tr</text></g><g transform="translate(266.9871710445782 327.01589573472614) rotate(0 76 51.5)"><text x="0" y="83" font-family="Cascadia" font-size="86.23255813953492px" fill="#000000" text-anchor="start" style="white-space: pre;" direction="ltr">Tri</text></g><g transform="translate(430.4871710445782 408.01589573472614) rotate(0 76 51.5)"><text x="0" y="83" font-family="Cascadia" font-size="86.23255813953492px" fill="#000000" text-anchor="start" style="white-space: pre;" direction="ltr">rid</text></g><g transform="translate(582.9871710445782 332.01589573472614) rotate(0 76 51.5)"><text x="0" y="83" font-family="Cascadia" font-size="86.23255813953492px" fill="#000000" text-anchor="start" style="white-space: pre;" direction="ltr">ide</text></g><g transform="translate(749.9871710445782 401.51589573472614) rotate(0 76 51.5)"><text x="0" y="83" font-family="Cascadia" font-size="86.23255813953492px" fill="#000000" text-anchor="start" style="white-space: pre;" direction="ltr">dex</text></g><g transform="translate(851.4871710445782 321.01589573472614) rotate(0 76 51.5)"><text x="0" y="83" font-family="Cascadia" font-size="86.23255813953492px" fill="#000000" text-anchor="start" style="white-space: pre;" direction="ltr">ex_</text></g><g transform="translate(956.9871710445782 390.01589573472614) rotate(0 76 51.5)"><text x="0" y="83" font-family="Cascadia" font-size="86.23255813953492px" fill="#000000" text-anchor="start" style="white-space: pre;" direction="ltr">x__</text></g><g><g transform="translate(824.2371710445782 326.64089573472614) rotate(0 27.07891887824985 18.543171997256565)"><path d="M0.9545692261308429 0.4111145619302987 C9.740000646933913 6.571228146925568, 43.1681576307863 30.336995685473084, 51.811018937453625 36.49512982405722 M-0.003420659489929756 -0.41865423839539284 C9.252590968422592 5.8986367269232876, 45.45907151799649 31.00124520856887, 54.16125841598958 37.50499823290855" stroke="#000000" stroke-width="1" fill="none"></path></g></g><g><g transform="translate(831.7371710445782 325.39089573472614) rotate(0 -3.27130424343045 57.361405336949986)"><path d="M0.3352999571710824 -0.3357673946768045 C-0.8184111750374239 18.732503101850547, -5.754712982599934 95.54128358525534, -6.877908444032073 114.8314981278032 M-0.9478062946535647 -1.5576492222212255 C-1.7083620600836973 17.66333103318388, -3.445181167417516 97.14153425573681, -4.495605840776116 116.28045989612117" stroke="#000000" stroke-width="1" fill="none"></path></g></g><g><g transform="translate(832.9871710445782 327.89089573472614) rotate(0 -60.63678666282442 21.822598785534524)"><path d="M-0.3287116114050149 -0.8381941314786672 C-20.626624840870498 6.458973006779949, -101.90718482173979 37.214803131793936, -122.61892060674727 44.48339170254767 M1.699576063267887 1.3361500041559338 C-18.584637900479137 8.230572638201215, -102.33145072210581 35.70552656420817, -122.9731493889168 42.74584759760648" stroke="#000000" stroke-width="1" fill="none"></path></g></g><g><g transform="translate(979.2371710445782 280.39089573472614) rotate(0 -26.259647563882254 48.68015058545393)"><path d="M-0.7645564500242472 -1.1043991204351187 C-9.464241352056463 15.164028215780853, -44.34755567150811 80.53184729851782, -52.99994252361357 97.12444264926016 M1.0349126843735577 0.9301873959973457 C-7.687003080037734 17.4126568319276, -44.568016268002495 82.5183939184621, -53.5542078121379 98.46470029134304" stroke="#000000" stroke-width="1" fill="none"></path></g></g><g><g transform="translate(976.7371710445782 286.64089573472614) rotate(0 2.8405376085825083 81.25235787291078)"><path d="M-0.9524583522230387 0.6828798417001962 C-0.18413152533272903 27.62880733050406, 3.3186933255443973 134.25385068692268, 4.292838710173965 161.0673788074404 M0.7483622835204007 -0.004212186746299196 C1.9345394057159624 27.183319981880487, 6.079888452502589 135.3338240857795, 6.633533569388092 162.5089279325679" stroke="#000000" stroke-width="1" fill="none"></path></g></g><g><g transform="translate(974.2371710445782 286.64089573472614) rotate(0 -48.60306954691191 85.64490101734177)"><path d="M-0.4559349294751882 -0.434980696812272 C-16.78481988472243 28.117677896842366, -81.77785679462055 143.0663335379213, -98.10321582518517 171.8189024861902 M1.5055605032108725 -1.7089495079778136 C-14.913385342353333 26.944472595546397, -81.96172548074897 143.85098543355244, -98.71169959703461 172.99875154266135" stroke="#000000" stroke-width="1" fill="none"></path></g></g><g><g transform="translate(661.7371710445782 327.89089573472614) rotate(0 -3.124029129575888 23.469670525081455)"><path d="M0.7393754180520773 -0.009195208176970393 C-0.3518119915078084 7.89169125991563, -4.9442618751277525 38.97669237491985, -6.111893910542131 46.81904422082007 M-0.33159121681004766 -1.0596266378089787 C-1.606798305201034 7.03734297423313, -5.86924322852244 39.801782659975196, -6.987433677203954 47.99896768797189" stroke="#000000" stroke-width="1" fill="none"></path></g></g><g><g transform="translate(656.7371710445782 332.89089573472614) rotate(0 58.00916683941148 55.067505231658004)"><path d="M-0.43023915253579614 -0.8741320554167031 C18.420388679082194 17.356927976633113, 95.09774590370556 91.56751777095099, 114.17155298031867 110.08391296230256 M1.5447465630434456 1.2813446701504292 C20.681432717448722 19.553703967227293, 97.30794363419835 92.72216638892269, 116.44857283135876 111.0091425187327" stroke="#000000" stroke-width="1" fill="none"></path></g></g><g><g transform="translate(661.7371710445782 326.64089573472614) rotate(0 -53.430730150053364 61.0047069065366)"><path d="M0.0651974681764842 0.7469863470643758 C-17.80352437061568 21.241772677128512, -88.53631271483998 101.88227529289821, -106.07204085551203 121.91586357913911 M-1.3597125903703273 0.09355023393407458 C-19.47065968334054 20.33309213548278, -89.59712075908358 99.80717160989221, -106.92665776828304 120.14286720940844" stroke="#000000" stroke-width="1" fill="none"></path></g></g><g><g transform="translate(520.4871710445782 332.89089573472614) rotate(0 44.869060498941735 20.79557234449311)"><path d="M1.039261620864272 -1.0022992607206105 C15.972631960734724 5.992376625910401, 74.93766218982637 34.06656510867178, 89.61238575540483 41.12279914654791 M0.1257352424785494 1.0858896820619703 C14.86610372196883 8.347763157375157, 73.23131597053259 35.658213578946885, 88.46084281336516 42.59344394970685" stroke="#000000" stroke-width="1" fill="none"></path></g></g><g><g transform="translate(527.9871710445782 327.89089573472614) rotate(0 -10.417895314488646 60.372123717889195)"><path d="M-0.7140385027974844 -0.9525685373693704 C-4.050062409664194 19.437423099701604, -17.572180409853658 101.27943595411877, -21.0858673568815 121.69681597314775 M1.1119525538943709 1.1617290351726117 C-2.2741301928895212 21.24145902990674, -17.954318993979445 99.49784161825353, -21.94774318287149 119.8088196102716" stroke="#000000" stroke-width="1" fill="none"></path></g></g><g><g transform="translate(527.9871710445782 331.64089573472614) rotate(0 -67.14250301538038 18.59077096421271)"><path d="M1.0666525896638632 1.1871556643396615 C-21.308449894562358 6.956806246812144, -112.02052652277051 29.672552677368124, -134.60892666019498 35.35118572749197 M0.16750646989792584 0.7648084427788855 C-22.30004610735923 6.596018329250317, -112.83242181617766 30.53484462120881, -135.35165862042456 36.416733485646546" stroke="#000000" stroke-width="1" fill="none"></path></g></g><g><g transform="translate(342.9871710445782 330.39089573472614) rotate(0 -2.3537788171507827 25.55771731654181)"><path d="M-0.359118628129363 0.18470156751573086 C-1.2673660711695751 8.547378573442499, -4.427387539173166 42.251096572106086, -5.270634448155761 50.65455307327211 M1.6532053627632557 -0.763934054877609 C0.5476067233147719 7.709141127361606, -5.017884866191695 43.1546240606842, -6.3607629970647395 51.879368687961254" stroke="#000000" stroke-width="1" fill="none"></path></g></g><g><g transform="translate(339.2371710445782 330.39089573472614) rotate(0 -24.48897212577981 69.88648939717561)"><path d="M-1.1139173571020364 -0.3047446724027395 C-9.335472554340958 23.01266274092098, -41.39499676860869 116.55264915662507, -49.480081552639604 139.8333725336939 M0.5021373010799288 -1.5103395707532763 C-7.318130663521588 22.00307448276629, -39.202863941080864 117.63636675207565, -47.1514198314026 141.2833183651045" stroke="#000000" stroke-width="1" fill="none"></path></g></g><g><g transform="translate(345.4871710445782 326.64089573472614) rotate(0 51.19614026414229 65.54660270441323)"><path d="M0.7938815530389547 0.6564467433840036 C17.97091695231696 22.215538625294965, 85.49985149862866 108.1483569705238, 102.64074988923967 129.73790348805488 M-0.24846936095505945 -0.04452266167849306 C16.819738334131735 21.662460206436617, 84.47990466645608 109.19482116827122, 101.76659811746329 131.13772807050498" stroke="#000000" stroke-width="1" fill="none"></path></g></g><g><g transform="translate(210.4871710445782 325.39089573472614) rotate(0 -2.6217086164467673 19.399121075999005)"><path d="M0.043358486518263906 0.15750272311270241 C-0.6221427861601114 6.778902598594626, -3.6961086813360455 33.104509894425675, -4.136052626743913 39.60365444459021 M-1.3930170373991133 -0.8054122925922276 C-2.237802767045796 5.495965265718599, -5.059559607990086 31.624829377221563, -5.286775719411671 37.929248279221355" stroke="#000000" stroke-width="1" fill="none"></path></g></g><g><g transform="translate(206.7371710445782 330.39089573472614) rotate(0 43.2516663428396 11.97023934859783)"><path d="M-0.313420695438981 0.46961046494543557 C14.269990461692213 4.43457634486258, 72.22376390062273 19.13224695958197, 86.81675338111818 22.652459955587982 M1.7228947101160883 -0.3294479862973094 C16.257700435929 3.9527427287772294, 71.95324607949703 20.47650340158492, 86.16625344257801 24.269926683492958" stroke="#000000" stroke-width="1" fill="none"></path></g></g><g><g transform="translate(207.9871710445782 331.64089573472614) rotate(0 18.816358478274196 58.81510477373374)"><path d="M0.07465339936316018 1.1942406591027976 C6.342680192366242 20.34056571088731, 30.409280860796567 96.52143151126802, 36.69085555113852 115.63830900751054 M-1.3452922953106463 0.7756130597926676 C5.384177275206895 20.00625151196495, 32.564284443762155 97.47938484290616, 38.97800925185904 116.85459648767487" stroke="#000000" stroke-width="1" fill="none"></path></g></g><g><g transform="translate(141.7371710445782 153.64089573472614) rotate(0 -39.423487241063185 -58.2617370609194)"><path d="M-0.3729999896138906 -0.2824986521154642 C-13.595465953772267 -19.578721207752825, -66.2251197612534 -96.96432879604399, -79.69243626557291 -116.24097546972334 M1.6320362864993512 -1.4764143898151816 C-11.690245597654332 -20.526911038961263, -67.05692650486404 -95.86764962574466, -80.47901076862588 -114.69881234010681" stroke="#000000" stroke-width="1" fill="none"></path></g></g><g><g transform="translate(141.7371710445782 157.39089573472614) rotate(0 32.9954112160392 -69.38924784215169)"><path d="M0.7155798967927693 0.9571980837732552 C11.64645071985821 -21.99396839104593, 55.39894114894172 -114.79513276778161, 66.35870181880891 -138.00450427494943 M-0.36787938673049214 0.4141231324151158 C10.346802329632142 -22.851412993483244, 54.43539138318349 -116.26587568264455, 65.46772481005638 -139.7356937680766" stroke="#000000" stroke-width="1" fill="none"></path></g></g><g><g transform="translate(61.73717104457819 38.64089573472614) rotate(0 70.40662852360867 -10.706855794694278)"><path d="M0.32573620118200775 -1.1878327433019875 C24.110826389367382 -4.432692180449764, 118.25220529673001 -17.26478821275135, 141.77564806975425 -20.492024892941117 M-0.9623910225369037 0.8029511211253704 C22.79247522563363 -2.691716772324095, 117.47411920856064 -18.32835023622339, 141.10356784274802 -22.21666271051392" stroke="#000000" stroke-width="1" fill="none"></path></g></g><g><g transform="translate(205.4871710445782 17.390895734726143) rotate(0 34.42622271837672 68.35045116502793)"><path d="M0.8589945372194052 -0.2746938820928335 C12.46698582333823 22.38101169305543, 57.596132848287624 113.87038635847469, 69.0016174968332 136.92818963564932 M-0.14917206007987271 -1.4645121155306697 C11.379368362439177 21.258556634771324, 56.692358724686 115.24966598489631, 68.18567121904343 138.1654144455865" stroke="#000000" stroke-width="1" fill="none"></path></g></g><g><g transform="translate(272.9871710445782 154.89089573472614) rotate(0 13.320047103986099 21.730139338560406)"><path d="M-1.113612550869584 0.008556974306702658 C3.5726059691359597 7.271069495255747, 22.870141360784572 35.835293098663286, 27.753706758841872 43.2289560560137 M0.5026021305844188 -1.032554559521377 C5.084814084780712 6.419019783126812, 22.39209670624385 37.261773763683934, 26.93885734360665 44.492833236642184" stroke="#000000" stroke-width="1" fill="none"></path></g></g><g><g transform="translate(301.7371710445782 199.89089573472614) rotate(0 35.13424223451875 -47.010831249132735)"><path d="M-1.1220430847257374 1.0582572039216755 C10.423744659001628 -14.921565332387885, 57.44714070198436 -78.97117451267938, 69.13349050320684 -95.07991970218718 M0.48974556645378486 0.5682382906414567 C12.424050586825857 -15.284123329029729, 59.57827070157354 -77.72496434361364, 71.39052755376323 -93.58445229461417" stroke="#000000" stroke-width="1" fill="none"></path></g></g><g><g transform="translate(369.2371710445782 106.14089573472614) rotate(0 -48.790352224540015 25.447769231330597)"><path d="M-0.24130643047392364 -0.9027054067701101 C-16.297986088568962 7.346852020795147, -80.29594286916156 42.10842936870952, -96.3426901999861 50.6013564709574 M-1.8271310358121993 1.2377703093364834 C-18.0497138032193 10.148338134574393, -81.405556744424 43.54705657550444, -97.339398018606 51.79824386943132" stroke="#000000" stroke-width="1" fill="none"></path></g></g><g><g transform="translate(206.7371710445782 18.640895734726143) rotate(0 80.72060894407332 44.52840318182484)"><path d="M-0.6088622566312551 0.010010152682661921 C26.414054596796632 14.896108636880914, 135.2568160776049 73.70221539897224, 162.0500801447779 88.61866857372225 M1.2723463292978705 -1.030338462498039 C28.214898241963237 14.10970447410519, 134.65615064939485 75.32133027165507, 161.52207675715908 90.0871448261477" stroke="#000000" stroke-width="1" fill="none"></path></g></g><g><g transform="translate(370.4871710445782 106.14089573472614) rotate(0 49.28628803133029 48.171604690346854)"><path d="M0.8047697547823189 0.6408330973237752 C17.103274580215416 16.592261578266818, 82.57523731427888 79.00539755585292, 98.80444091595709 94.91745416484773 M-0.23186485329642892 -0.06833347192034123 C15.824708716676884 16.149462709718694, 81.66049303532269 80.67430806089814, 97.88497693320737 96.41154285261408" stroke="#000000" stroke-width="1" fill="none"></path></g></g><g><g transform="translate(370.4871710445782 107.39089573472614) rotate(0 72.66592595018449 -31.213458645716315)"><path d="M-0.5250881429761648 -0.12974960245192046 C23.710028366620342 -10.59571486947437, 121.44134448406598 -52.13540965157251, 145.8569400433451 -62.2971676889807 M1.4001018526218831 -1.2434720890782773 C25.513133240944395 -11.640326373086621, 121.30693146924797 -51.566047930425654, 145.35878810247405 -61.30950547447428" stroke="#000000" stroke-width="1" fill="none"></path></g></g><g><g transform="translate(205.4871710445782 18.640895734726143) rotate(0 155.331392857153 13.353668503146608)"><path d="M0.20184538923203954 -0.7212163802236318 C52.26215626560152 3.595096850767732, 260.0081370409578 21.633104074373843, 311.81411022506654 26.014674187079073 M-1.1513245107606054 1.514541074819863 C50.84825328689069 6.004411500282586, 259.27691511850804 23.259685501642522, 311.1622226295993 27.428553386516867" stroke="#000000" stroke-width="1" fill="none"></path></g></g><g><g transform="translate(470.4871710445782 202.39089573472614) rotate(0 22.54913952983918 -79.76075513400137)"><path d="M-0.929204237088561 -0.017728501930832863 C6.62279701270163 -26.72373321292301, 38.27255426682532 -133.12465274172524, 46.027483296766874 -159.5037817660719 M0.7838248091004791 -1.0726399107836189 C8.205105426218362 -27.704304346845795, 38.22452638795599 -131.80839364290858, 45.618866563942284 -158.36209194203838" stroke="#000000" stroke-width="1" fill="none"></path></g></g><g><g transform="translate(515.4871710445782 43.811350280180704) rotate(0 62.832915096965394 78.20373652419752)"><path d="M1.1817940648645162 0.7813050750643014 C22.17705229609978 26.66108200262216, 104.7803597986585 130.3963258942081, 125.32273297435177 156.2615867542611 M0.3430972195789219 0.14588629413396115 C21.305117460673276 25.60464112958786, 104.23779346036524 128.93661014052614, 124.78275868589563 154.56270868783307" stroke="#000000" stroke-width="1" fill="none"></path></g></g><g><g transform="translate(515.4871710445782 42.90225937108977) rotate(0 91.22885635640807 -0.9293652787465732)"><path d="M-0.28407428227365017 1.050320368632674 C30.122085993228993 0.5947973383082643, 152.27580196677962 -2.2541706722906745, 182.74178699508988 -2.9090509261258264 M1.7676479901932183 0.5561346168257297 C31.990384757886222 0.3044661074182588, 151.82379731220448 -1.1008516688390586, 181.80136152206668 -1.4670592293024378" stroke="#000000" stroke-width="1" fill="none"></path></g></g><g><g transform="translate(695.4871710445782 40.17498664381708) rotate(0 -29.933141515576608 91.63704354944045)"><path d="M-0.9902756039053201 -0.7936761137098074 C-10.835813849091968 29.49635714763267, -49.614031027855674 152.0415877085856, -59.430593977021815 182.5981351758607 M0.6906909747049212 1.4040399812534452 C-9.311321592562338 31.812072089365255, -50.872743459159835 153.6738162256337, -60.556974005858244 184.0677632125907" stroke="#000000" stroke-width="1" fill="none"></path></g></g><g><g transform="translate(693.6689892263964 39.26589573472614) rotate(0 58.9452300426517 79.37120701885868)"><path d="M0.47468184269964686 0.5672289546579123 C19.80636157593266 27.00690457295965, 96.7452810670503 131.2987512221729, 116.38159756480968 157.65968729274516 M-0.735248919222504 -0.18057978948578235 C18.93617774878205 26.503384185716175, 98.82611657648091 132.77962694749067, 118.62570900452575 158.92299382720313" stroke="#000000" stroke-width="1" fill="none"></path></g></g><g><g transform="translate(694.5780801354872 41.08407755290801) rotate(0 96.69198013860137 10.702404415955414)"><path d="M-0.32213926278054716 -0.3843536797910928 C31.510119899847744 3.355261307943493, 159.61148017068027 19.14719769501999, 191.59079553142868 23.036552138931334 M1.7095988949202003 -1.6317433070205152 C33.84213646547982 1.676900933839262, 161.685706573153 16.739871454946105, 193.70609953998337 21.07634908127341" stroke="#000000" stroke-width="1" fill="none"></path></g></g><g><g transform="translate(884.5780801354872 61.99316846199889) rotate(0 -37.48587451865558 73.43201906744561)"><path d="M-0.31842876635491846 1.125019281730056 C-12.96225335921979 25.431733465002797, -63.34004691223979 121.21368109040867, -76.2669788812033 145.2442436165769 M1.715257401969284 0.6700504592992367 C-10.963232754598172 25.135339155172876, -63.240372228300124 121.96034954200472, -76.68700643928042 146.19398767559198" stroke="#000000" stroke-width="1" fill="none"></path></g></g><g><g transform="translate(884.5780801354872 62.90225937108977) rotate(0 27.275377269920682 69.28786597455937)"><path d="M-0.8915116969496011 0.23887654580175877 C8.10148073126646 23.533954721158654, 44.103260956196586 116.09749535503938, 53.355196942151906 139.25704916211015 M0.8413059328123929 -0.6813172129914165 C10.234870824302455 22.347135661719648, 46.60021772561083 114.68771175011202, 55.442266236790836 137.6989706779847" stroke="#000000" stroke-width="1" fill="none"></path></g></g><g><g transform="translate(884.5780801354872 62.90225937108977) rotate(0 71.90815079391678 -25.289390478520204)"><path d="M-1.0763032022863626 0.9681224349886179 C23.251404832156776 -7.582801506002288, 120.57852399871885 -42.79533057103326, 144.89260479012 -51.54690339202905 M0.5594988871738313 0.43078276801854365 C24.773959623614726 -7.950463039246241, 119.79226659272997 -41.846575059876045, 143.6495404776694 -50.34432969435031" stroke="#000000" stroke-width="1" fill="none"></path></g></g><g><g transform="translate(1027.3053528627602 12.902259371089798) rotate(0 -45.872751656755554 98.36771531399934)"><path d="M-0.3285462375730276 -0.055433887615799815 C-15.64423092999923 32.971202251574766, -77.10529427274406 164.95228159408452, -92.57646182955014 197.86557125195185 M1.6998282583616673 -1.1301406239531935 C-13.700975822764065 31.568483600149666, -77.47101081670536 162.72898803738312, -93.44533157187284 196.05423959226601" stroke="#000000" stroke-width="1" fill="none"></path></g></g><g><g transform="translate(1026.3962619536692 12.902259371089798) rotate(0 75.49297097133376 55.997418906836)"><path d="M0.2673806313425302 -0.46954446472227573 C25.749062422200083 18.155818386319456, 126.92896075538815 93.68280517132668, 152.03732520920957 112.70699195120142 M-1.051383266542107 -1.7616592540405691 C24.36606926661262 16.903205023817144, 125.47259173755988 94.29394558358652, 151.20433002587208 113.75649706771254" stroke="#000000" stroke-width="1" fill="none"></path></g></g><g><g transform="translate(1176.3962619536692 125.62953209836252) rotate(0 -119.15418318432421 36.93014162140645)"><path d="M0.5825556758791208 -0.2549696389585734 C-39.07546633011241 12.176900357357928, -198.16936769664983 61.71252108540271, -237.71216944202123 74.34159147539597 M-0.5707413236238064 -1.434432644750923 C-40.4458825352094 11.126264120559913, -199.4650864245253 62.24380780709793, -238.89092204452766 75.2947158875638" stroke="#000000" stroke-width="1" fill="none"></path></g></g><g><g transform="translate(1176.3962619536692 124.72044118927164) rotate(0 -94.16905811504535 73.84128445231948)"><path d="M-0.506180364266038 0.567636514082551 C-31.763047797944033 25.356109078736466, -157.1588153122161 123.60788219229063, -188.5996469029986 147.86252716600217 M1.4289362151548266 -0.17995826136320825 C-29.929898819107198 24.330466511571267, -158.40126676553677 121.55377894964744, -189.76705244524558 146.04959736119275" stroke="#000000" stroke-width="1" fill="none"></path></g></g><g><g transform="translate(990.0326255900327 268.3568048256352) rotate(0 95.83678334067486 28.905232388508438)"><path d="M-0.3721648927778005 -0.7715392772108316 C31.769590623462246 8.763530602768968, 159.94210052382968 47.80711306639468, 192.04573157412733 57.436087441613736 M1.6333098091743885 1.4377986569143832 C33.70737477353741 11.09223888117538, 159.53762988443322 49.204878759928846, 191.21714973237167 58.58200405422768" stroke="#000000" stroke-width="1" fill="none"></path></g></g><g><g transform="translate(1174.5780801354872 124.72044118927164) rotate(0 3.1434988774137764 99.49365282384682)"><path d="M0.1705135401338338 -1.1409041997045277 C1.53338981197409 32.08991683361431, 6.245216123070926 165.57899191814164, 7.48610333546294 199.07592432536185 M-1.199105580635369 0.8745171501114966 C0.08489580874524694 34.25588697412361, 5.278517536912471 166.76153946338843, 6.650080304772091 200.1282098473981" stroke="#000000" stroke-width="1" fill="none"></path></g></g><g><g transform="translate(60.941716499123686 39.26589573472614) rotate(0 -25.110917648980376 85.78842305678789)"><path d="M0.7198812011629343 -0.21453866399824617 C-7.4256640629222 28.73971565220166, -41.36352290275197 144.23444610851053, -49.99584985934198 172.9496215215122 M-0.3613198975659908 -1.372775407936424 C-8.56629771410798 27.342739263378427, -42.87799129564936 142.27065255824647, -50.94171649912372 171.42105261698197" stroke="#000000" stroke-width="1" fill="none"></path></g></g><g><g transform="translate(10.941716499123686 209.26589573472614) rotate(0 66.14961115951553 -27.24802448888056)"><path d="M-0.39314474500715735 -0.689986240491271 C21.799550021225294 -9.605773918183914, 110.84905393537919 -45.34172773287828, 132.6923670640384 -54.458542708544556 M1.6013155345246197 1.562167037911713 C23.753062855126046 -7.5877686950959475, 110.31073383704614 -46.791194368053326, 132.20326885448594 -56.058216015672805" stroke="#000000" stroke-width="1" fill="none"></path></g></g><g><g transform="translate(10.941716499123686 208.35680482563527) rotate(0 93.00737716133449 62.47552448979323)"><path d="M-0.8894771877676249 0.04666926898062229 C30.05460378165273 21.160962340337296, 153.60416277772327 105.05053438744078, 184.62682841816414 125.92548228973007 M0.8444085593149064 -0.9744333101436496 C32.258838021596056 19.84195864460345, 156.3163657307117 102.799278092706, 186.90423151043672 124.05014937942332" stroke="#000000" stroke-width="1" fill="none"></path></g></g><g><g transform="translate(11.850807408214678 209.26589573472614) rotate(0 39.76410372600458 102.14732160796663)"><path d="M0.9298540648072959 0.18556231297552594 C14.282448363473456 34.21040777330371, 66.54501232142468 171.01704022163014, 79.5693187325176 205.0572646339847 M-0.04111128050833934 -0.7626214180514217 C13.243119190690855 32.82190838442268, 65.81525219394733 168.79592676257204, 78.87243833073491 203.2033901816843" stroke="#000000" stroke-width="1" fill="none"></path></g></g><g><g transform="translate(90.94171649912369 412.90225937108977) rotate(0 53.914971670039336 -40.25005408650773)"><path d="M0.7376792963594199 -0.2826854344457388 C18.701633855960132 -13.583654099872172, 90.59832751731754 -66.88998732204468, 108.16412114247001 -80.21742273856974 M-0.3341778023913502 -1.4766992328688504 C17.516467975823936 -14.63585415398872, 89.55701241313844 -66.26138115062297, 107.68405746045774 -79.27141715237028" stroke="#000000" stroke-width="1" fill="none"></path></g></g><g><g transform="translate(140.9417164991237 155.62953209836252) rotate(0 28.150988507099783 89.08639693408867)"><path d="M0.6079774674028158 0.48032900132238865 C9.955080474676052 29.798683997006574, 47.21086252511223 147.69040423885662, 56.83395010574973 177.06010010062968 M-0.5319730915501715 -0.3131022183224559 C8.552974069365721 29.70039326193319, 45.876128300025364 148.8146250706606, 55.65554662945932 178.48589608649976" stroke="#000000" stroke-width="1" fill="none"></path></g></g><g><g transform="translate(196.39626195366918 331.9931684619989) rotate(0 52.777738679733716 -66.81749088672751)"><path d="M1.0132356103509663 0.2961472515016794 C18.70458708295993 -21.955706319653174, 88.05074075657983 -111.68687852692197, 105.4694317830218 -133.9311290249567 M0.08604557644575839 -0.5939793867990375 C17.759608010635 -22.63050651642748, 87.47512442119529 -110.10300387442452, 105.00647436911744 -132.5484556027468" stroke="#000000" stroke-width="1" fill="none"></path></g></g><g><g transform="translate(300.9417164991237 201.08407755290796) rotate(0 84.11996120414267 0.014527179025634496)"><path d="M-0.8445420261472463 -0.48814415372908115 C27.383998245915215 -0.21461081993624592, 140.56296952675004 1.5323287853576233, 169.08446443443262 1.8190781378272163 M0.9129346807859839 -1.7900237797759475 C29.007982761414542 -1.8580631520864372, 139.92763693206854 -0.5773490868344915, 168.13303552615534 0.1742466841350483" stroke="#000000" stroke-width="1" fill="none"></path></g></g><g><g transform="translate(468.21444377185094 201.9931684619989) rotate(0 87.87656532071264 0.38831537166100816)"><path d="M0.651749837771058 -0.9835809532552957 C30.104198401274523 -0.7480629850630559, 147.27596280575912 1.4551422604895643, 176.21835086816395 1.760211696577312 M-0.46522022673860186 1.1144351009465754 C28.939469816519313 0.9884222960951827, 146.16086077346648 -0.08505853725825627, 175.67130324668656 0.08447536122897414" stroke="#000000" stroke-width="1" fill="none"></path></g></g><g><g transform="translate(641.8508074082147 201.9931684619989) rotate(0 84.87067865315305 -0.13390299833329777)"><path d="M0.2591743882745505 -0.5931035991758108 C28.736434045512997 -1.064916313766986, 142.20407385120552 -2.1147648164607573, 170.80525509352697 -1.9677439891818154 M-1.063897787220776 1.7099130659177901 C27.251356446710254 1.2743118789125982, 141.0248664814086 -0.46371228415295374, 169.80269582672878 -0.9861116050082432" stroke="#000000" stroke-width="1" fill="none"></path></g></g><g><g transform="translate(810.0326255900327 199.26589573472614) rotate(0 64.08688871859681 0.3026081025414271)"><path d="M1.0493633564561604 -0.5814205046743154 C22.394349414821427 -0.8503062482923269, 106.85273086933275 -1.0827519055455923, 128.03263704793727 -1.1225135799497366 M0.14114038925617933 1.7277297850325706 C21.31831374854193 1.5220467742159964, 105.80725025223424 0.10238013226538895, 127.00627148902242 -0.17440795820206412" stroke="#000000" stroke-width="1" fill="none"></path></g></g><g><g transform="translate(938.2144437718512 197.44771391654433) rotate(0 28.356661429802216 33.49468556367367)"><path d="M0.3144143823534251 -0.5033494178205729 C10.062199385972145 10.905348142157445, 48.3863952900535 56.48098557626432, 57.692979655854835 67.8936950533566 M-0.9796567962504924 -1.8132118075154722 C8.716330409092281 9.743965174197356, 47.0588157665609 57.049807064752784, 56.96556669336973 68.80258293486283" stroke="#000000" stroke-width="1" fill="none"></path></g></g><g><g transform="translate(1180.0326255900327 325.6295320983625) rotate(0 -42.3146023365 74.45376429474993)"><path d="M0.09154430665075775 0.5352263387292624 C-13.962629236224455 25.10595639021784, -69.67244587810418 123.27410893746168, -83.72576683614052 147.79996174590826 M-1.3195336616970599 -0.22938377877697347 C-15.591987785212108 24.47943820703491, -70.72318974215244 124.30704746330603, -84.72074897965065 149.13691236827685" stroke="#000000" stroke-width="1" fill="none"></path></g></g><g><g transform="translate(992.7598983173052 269.26589573472614) rotate(0 50.985716226444765 103.17300066646865)"><path d="M0.897953515872359 1.1141646746546028 C18.050110257202505 35.27222542077529, 85.40182516989171 170.70277583600222, 102.06119207052362 204.60243623727428 M-0.08975961763411755 0.6534971835091712 C17.00016721499127 34.97163484227139, 84.01870996967762 171.57894630176216, 101.24072698937576 205.69250414942817" stroke="#000000" stroke-width="1" fill="none"></path></g></g><g><g transform="translate(301.00891017501294 200.35285225646527) rotate(0 20.644674594466437 60.5445884520083)"><path d="M0.8015556033700706 -0.9094697233289479 C7.862610859861214 19.317801866869353, 34.73686632062117 100.61909023543308, 41.52611562313282 120.901157281564 M-0.23676643420010812 1.2274547265842557 C6.721147630093236 21.626237736794074, 33.64923270477721 101.93681983204047, 40.466237383389405 121.99864662734551" stroke="#000000" stroke-width="1" fill="none"></path></g></g><g><g transform="translate(467.96543191414344 203.83111312603052) rotate(0 -61.03354908876531 58.70387059616979)"><path d="M-0.1641963902860879 -1.1239554997533558 C-20.200238983986377 18.571250369955877, -100.85730590848924 98.5227231984823, -120.92549381163776 118.5316966920929 M-1.7095382245257498 0.9003639175370335 C-21.84643751220912 20.182094530087987, -101.99057559679002 97.21159923112532, -121.90290178724439 116.55130618492383" stroke="#000000" stroke-width="1" fill="none"></path></g></g><g><g transform="translate(468.8349971315347 200.35285225646527) rotate(0 28.180669429137083 67.25053561159771)"><path d="M-1.1792047921568154 -0.594522201642394 C8.533244846755823 21.914171663601536, 47.909409242841406 112.55443076381754, 57.5405436504308 135.09559342483783 M0.4025739626213909 1.7077496971562507 C10.110386199237963 23.834397328984572, 47.879969356815316 110.77169239869633, 57.12737055980152 133.1373356588816" stroke="#000000" stroke-width="1" fill="none"></path></g></g><g><g transform="translate(642.7480406097957 201.22241747385658) rotate(0 -58.39080340019689 66.85478024748639)"><path d="M-0.14655184708535662 0.9957893427461386 C-19.414493696386216 23.160288988912235, -96.5599839210242 111.14368448090617, -115.97437543157994 133.23658569262403 M-1.6826302961446347 0.47297480234876277 C-21.028610731227545 22.226900163126864, -97.33933347894921 109.38117388247392, -116.63505495330824 131.21539234551642" stroke="#000000" stroke-width="1" fill="none"></path></g></g><g><g transform="translate(642.7480406097957 201.22241747385658) rotate(0 93.53296872156182 62.091854164849394)"><path d="M1.0560014728456737 0.6470957335084677 C32.074591973062205 21.23203023747149, 155.97021863428674 103.83818841504767, 186.91467392637338 124.24249128143745 M0.1512635167501868 -0.05878295173868531 C30.937897088594326 20.123262088918864, 154.99748628746516 101.81507499073534, 185.9446583610488 122.52113749889168" stroke="#000000" stroke-width="1" fill="none"></path></g></g><g><g transform="translate(641.0089101750129 199.48328703907396) rotate(0 8.845199259447554 64.1017859823103)"><path d="M-0.3918924037367105 -0.2382207747548819 C2.236494786038558 21.544164693555324, 13.055171440018018 108.3023202414368, 15.766720937532545 129.61246259146088 M1.603225354962051 -1.4088906268402934 C4.617842356644134 20.142745395316275, 15.887256707509657 106.34026733032658, 18.08229092263168 127.97121331189477" stroke="#000000" stroke-width="1" fill="none"></path></g></g><g><g transform="translate(938.4002145228392 197.7441566042914) rotate(0 -53.32644365043825 61.94409307800396)"><path d="M-0.568647152557969 -0.3667011257261038 C-18.45669915739286 20.44308943181042, -90.17497030663431 103.24890816801806, -107.98656166388619 124.09061820492471 M1.3336743630096315 -1.6048231620714069 C-16.134930581001818 19.454040403763987, -87.51697032570034 104.19598783140648, -105.81537808801014 125.49300931807929" stroke="#000000" stroke-width="1" fill="none"></path></g></g><g><g transform="translate(813.1828232184912 199.48328703907396) rotate(0 7.4137876797211675 63.93335432497298)"><path d="M0.04620074070990077 0.5559548076242209 C2.592158736034791 21.50883988925404, 13.523671011848053 105.79587668670152, 16.21625795919931 126.67490503310185 M-1.3886825997568668 -0.19777286371216185 C0.8902298803883888 20.851048981800297, 12.33171855455046 106.93881047457268, 15.107834880673499 128.06448151365814" stroke="#000000" stroke-width="1" fill="none"></path></g></g><g><g transform="translate(831.4436927837087 326.4398087782044) rotate(0 80.76522781663982 -28.48562243640137)"><path d="M-0.5122226949781179 -0.7017092887312173 C26.033324280537805 -10.63263966841218, 132.7805565975986 -49.09740486208186, 159.86048887279713 -58.51553426214856 M1.4197216608189045 1.5442893893457952 C28.27757255314677 -7.764272561031998, 135.31629515977647 -48.01126997427851, 162.0426783282579 -57.56832971594659" stroke="#000000" stroke-width="1" fill="none"></path></g></g><g><g transform="translate(694.2067972128025 40.58365274407191) rotate(0 166.31399879729815 -15.257163359598437)"><path d="M0.35430111922323704 0.06932602487504491 C55.783899630008484 -4.822704407824574, 278.1808657675899 -23.83725540316849, 333.5468271171203 -28.95869677031635 M-0.918829522524029 -0.9398817574046553 C54.341137384901046 -6.189037989164142, 277.60145376307065 -25.784125552076837, 333.0379686937196 -30.58365274407192" stroke="#000000" stroke-width="1" fill="none"></path></g></g></svg>