<svg version="1.1" xmlns="http://www.w3.org/2000/svg" viewBox="0 0 1576.9999999999995 454.2467532467535" width="3153.999999999999" height="908.493506493507">
  <!-- svg-source:excalidraw -->
  
  <defs>
    <style>
      @font-face {
        font-family: "Virgil";
        src: url("https://excalidraw.com/FG_Virgil.woff2");
      }
      @font-face {
        font-family: "Cascadia";
        src: url("https://excalidraw.com/Cascadia.woff2");
      }
    </style>
  </defs>
  <g><g transform="translate(1089.9999999999995 138.24675324675337) rotate(0 238.5 153.00000000000006)" fill-rule="evenodd"><path d="M0 0 L1 305.00000000000006 L477 306.00000000000006 L450 19 L0 0" stroke="none" stroke-width="0" fill="#69cad9" fill-rule="evenodd"></path><path d="M0 0 C0.24274426875635982 74.03700197068976, 0.48548853751271964 148.07400394137952, 1 305.00000000000006 M0 0 C0.24523382158949972 74.79631558479743, 0.49046764317899944 149.59263116959485, 1 305.00000000000006 M1 305.00000000000006 C152.94610094614328 305.31921449778605, 304.89220189228655 305.6384289955721, 477 306.00000000000006 M1 305.00000000000006 C136.41538634113968 305.28448610575873, 271.83077268227936 305.56897221151746, 477 306.00000000000006 M477 306.00000000000006 C469.91086729159576 230.64514491437006, 462.8217345831916 155.29028982874007, 450 19 M477 306.00000000000006 C466.4708197013475 194.07871312173086, 455.941639402695 82.15742624346169, 450 19 M450 19 C350.15588308218867 14.784359507914633, 250.3117661643773 10.568719015829265, 0 0 M450 19 C327.1539649134502 13.813167407456785, 204.30792982690036 8.626334814913571, 0 0 M0 0 C0 0, 0 0, 0 0 M0 0 C0 0, 0 0, 0 0" stroke="#000" stroke-width="1" fill="none"></path></g></g><g><g transform="translate(10 43.961038961039094) rotate(0 238.5 153.00000000000003)" fill-rule="evenodd"><path d="M0 0 L1 305.00000000000006 L477 306.00000000000006 L450 19 L0 0" stroke="none" stroke-width="0" fill="#47a0c9" fill-rule="evenodd"></path><path d="M0 0 C0.30859713824465873 94.12212716462093, 0.6171942764893175 188.24425432924187, 1 305.00000000000006 M0 0 C0.2818019467405975 85.94959375588225, 0.563603893481195 171.8991875117645, 1 305.00000000000006 M1 305.00000000000006 C97.63877128176392 305.20302262874327, 194.27754256352785 305.4060452574865, 477 306.00000000000006 M1 305.00000000000006 C109.91407315321267 305.228811078053, 218.82814630642534 305.45762215610597, 477 306.00000000000006 M477 306.00000000000006 C470.0750326202251 232.39016155572614, 463.1500652404502 158.7803231114522, 450 19 M477 306.00000000000006 C470.93780374517667 241.5610990690999, 464.8756074903533 177.12219813819976, 450 19 M450 19 C284.63226032909006 12.017806547228247, 119.26452065818012 5.035613094456494, 0 0 M450 19 C289.0403371537104 12.203925346489996, 128.08067430742085 5.407850692979991, 0 0 M0 0 C0 0, 0 0, 0 0 M0 0 C0 0, 0 0, 0 0" stroke="#000" stroke-width="1" fill="none"></path></g></g><g><g transform="translate(172.5 103.70129870129881) rotate(0 238.5 153.00000000000003)" fill-rule="evenodd"><path d="M0 0 L1 305.00000000000006 L477 306.00000000000006 L450 19 L0 0" stroke="none" stroke-width="0" fill="#69cad9" fill-rule="evenodd"></path><path d="M0 0 C0.2924602079205215 89.20036341575909, 0.584920415841043 178.40072683151817, 1 305.00000000000006 M0 0 C0.2617711153812707 79.84019019128758, 0.5235422307625414 159.68038038257515, 1 305.00000000000006 M1 305.00000000000006 C146.32854202575982 305.3053120630794, 291.65708405151963 305.6106241261587, 477 306.00000000000006 M1 305.00000000000006 C162.62517872862517 305.3395486948081, 324.25035745725035 305.6790973896161, 477 306.00000000000006 M477 306.00000000000006 C467.2996108858846 202.8884564536624, 457.59922177176924 99.77691290732471, 450 19 M477 306.00000000000006 C469.32458342174067 224.41316451998432, 461.64916684348134 142.82632903996856, 450 19 M450 19 C353.8383455062285 14.939841254707424, 257.676691012457 10.87968250941485, 0 0 M450 19 C286.11474675592035 12.080400418583302, 122.2294935118407 5.160800837166606, 0 0 M0 0 C0 0, 0 0, 0 0 M0 0 C0 0, 0 0, 0 0" stroke="#000" stroke-width="1" fill="none"></path></g></g><g><g transform="translate(306.99999999999955 10) rotate(0 238.5 153.00000000000003)" fill-rule="evenodd"><path d="M0 0 L1 305.00000000000006 L477 306.00000000000006 L450 19 L0 0" stroke="none" stroke-width="0" fill="#9be1e6" fill-rule="evenodd"></path><path d="M0 0 C0.3466965314932168 105.74244210543114, 0.6933930629864336 211.48488421086228, 1 305.00000000000006 M0 0 C0.3535105693154037 107.82072364119814, 0.7070211386308074 215.64144728239629, 1 305.00000000000006 M1 305.00000000000006 C152.65212545208635 305.31859690221034, 304.3042509041727 305.6371938044206, 477 306.00000000000006 M1 305.00000000000006 C170.00240946598353 305.35504707871013, 339.00481893196707 305.71009415742014, 477 306.00000000000006 M477 306.00000000000006 C468.9170725361444 220.0814747360535, 460.83414507228883 134.162949472107, 450 19 M477 306.00000000000006 C470.9663508444093 241.86454416094352, 464.9327016888186 177.72908832188696, 450 19 M450 19 C290.7759311562404 12.277205982152372, 131.55186231248075 5.5544119643047445, 0 0 M450 19 C274.9406550312415 11.608605434652418, 99.88131006248295 4.217210869304836, 0 0 M0 0 C0 0, 0 0, 0 0 M0 0 C0 0, 0 0, 0 0" stroke="#000" stroke-width="1" fill="none"></path></g></g><g><g transform="translate(473.99999999999955 87.71428571428578) rotate(0 238.5 153.00000000000003)" fill-rule="evenodd"><path d="M0 0 L1 305.00000000000006 L477 306.00000000000006 L450 19 L0 0" stroke="none" stroke-width="0" fill="#caf0fd" fill-rule="evenodd"></path><path d="M0 0 C0.3882717090658844 118.42287126509476, 0.7765434181317687 236.8457425301895, 1 305.00000000000006 M0 0 C0.30869142385199666 94.150884274859, 0.6173828477039933 188.301768549718, 1 305.00000000000006 M1 305.00000000000006 C187.14769765920937 305.3910665917211, 373.29539531841874 305.7821331834421, 477 306.00000000000006 M1 305.00000000000006 C133.10733249001206 305.2775364127942, 265.2146649800241 305.55507282558835, 477 306.00000000000006 M477 306.00000000000006 C466.8083922266029 197.66698403833436, 456.61678445320575 89.3339680766687, 450 19 M477 306.00000000000006 C470.3216104821302 235.01119290264327, 463.6432209642604 164.0223858052865, 450 19 M450 19 C274.9728428805247 11.609964477177709, 99.94568576104939 4.219928954355419, 0 0 M450 19 C350.35901305731386 14.792936106864364, 250.7180261146277 10.585872213728726, 0 0 M0 0 C0 0, 0 0, 0 0 M0 0 C0 0, 0 0, 0 0" stroke="#000" stroke-width="1" fill="none"></path></g></g><g><g transform="translate(935.9999999999995 18.79220779220782) rotate(0 238.5 153.00000000000003)" fill-rule="evenodd"><path d="M0 0 L1 305.00000000000006 L477 306.00000000000006 L450 19 L0 0" stroke="none" stroke-width="0" fill="#81d8e0" fill-rule="evenodd"></path><path d="M0 0 C0.2636683193035424 80.41883738758045, 0.5273366386070848 160.8376747751609, 1 305.00000000000006 M0 0 C0.2437207597307861 74.33483171788977, 0.4874415194615722 148.66966343577954, 1 305.00000000000006 M1 305.00000000000006 C179.71370769552888 305.37544896574695, 358.42741539105776 305.75089793149385, 477 306.00000000000006 M1 305.00000000000006 C172.44662537164987 305.36018198607496, 343.89325074329975 305.72036397214987, 477 306.00000000000006 M477 306.00000000000006 C468.7011703477241 217.78651443691928, 460.40234069544823 129.57302887383847, 450 19 M477 306.00000000000006 C468.25958290686833 213.09260349152612, 459.5191658137366 120.18520698305221, 450 19 M450 19 C284.09868580754846 11.995277845207601, 118.19737161509687 4.990555690415203, 0 0 M450 19 C279.9192895973101 11.818814449664204, 109.8385791946202 4.6376288993284085, 0 0 M0 0 C0 0, 0 0, 0 0 M0 0 C0 0, 0 0, 0 0" stroke="#000" stroke-width="1" fill="none"></path></g></g><g><g transform="translate(640.9999999999995 52.955403087478544) rotate(0 229.5 147.22641509433967)" fill-rule="evenodd"><path d="M0 0 L0.9622641509433963 293.49056603773596 L459.00000000000006 294.45283018867934 L433.01886792452837 18.28301886792453 L0 0" stroke="none" stroke-width="0" fill="#caf0fd" fill-rule="evenodd"></path><path d="M0 0 C0.3208584182263124 97.86181755902531, 0.6417168364526248 195.72363511805062, 0.9622641509433963 293.49056603773596 M0 0 C0.23555549440624302 71.84442579390414, 0.47111098881248603 143.68885158780827, 0.9622641509433963 293.49056603773596 M0.9622641509433963 293.49056603773596 C137.01118329369095 293.77638309475856, 273.0601024364385 294.0622001517811, 459.00000000000006 294.45283018867934 M0.9622641509433963 293.49056603773596 C158.8248879327035 293.8222102053447, 316.6875117144636 294.15385437295345, 459.00000000000006 294.45283018867934 M459.00000000000006 294.45283018867934 C449.3714453682251 192.1048605842569, 439.7428907364502 89.75689097983445, 433.01886792452837 18.28301886792453 M459.00000000000006 294.45283018867934 C452.57832772541127 226.19283230693947, 446.15665545082254 157.9328344251996, 433.01886792452837 18.28301886792453 M433.01886792452837 18.28301886792453 C324.92063065595437 13.718871072140294, 216.82239338738037 9.154723276356059, 0 0 M433.01886792452837 18.28301886792453 C273.3101082945524 11.53976012799221, 113.60134866457639 4.796501388059893, 0 0 M0 0 C0 0, 0 0, 0 0 M0 0 C0 0, 0 0, 0 0" stroke="#000" stroke-width="1" fill="none"></path></g></g><g><g transform="translate(789.9999999999995 85.67532467532465) rotate(0 238.5 146.00000000000003)" fill-rule="evenodd"><path d="M0 0 L1 291.045751633987 L477 292.00000000000006 L450 18.130718954248366 L0 0" stroke="none" stroke-width="0" fill="#9be1e6" fill-rule="evenodd"></path><path d="M0 0 C0.3354005631990731 97.61690901473678, 0.6708011263981462 195.23381802947355, 1 291.045751633987 M0 0 C0.20120265958830716 58.559179290636074, 0.4024053191766143 117.11835858127215, 1 291.045751633987 M1 291.045751633987 C153.91225092224778 291.35229841042803, 306.82450184449556 291.6588451868691, 477 292.00000000000006 M1 291.045751633987 C187.3640426475555 291.41936000201224, 373.728085295111 291.7929683700375, 477 292.00000000000006 M477 292.00000000000006 C467.9742468313314 200.44901736297473, 458.9484936626628 108.8980347259494, 450 18.130718954248366 M477 292.00000000000006 C466.55793267181144 186.08290845176538, 456.1158653436229 80.16581690353067, 450 18.130718954248366 M450 18.130718954248366 C312.14523253496736 12.57648329777777, 174.29046506993467 7.022247641307173, 0 0 M450 18.130718954248366 C352.91346619371325 14.219055268284103, 255.82693238742647 10.307391582319841, 0 0 M0 0 C0 0, 0 0, 0 0 M0 0 C0 0, 0 0, 0 0" stroke="#000" stroke-width="1" fill="none"></path></g></g><g transform="translate(323.9808977128009 47.4409321937228) rotate(0 460.5 157.49999999999997)"><text x="0" y="253" font-family="Cascadia, Segoe UI Emoji" font-size="262.0465116279072px" fill="#0e101b" text-anchor="start" style="white-space: pre;" direction="ltr">Tridex</text></g></svg>